<?xml version="1.0" encoding="utf-8"?>
<!-- Generator: Adobe Illustrator 18.0.0, SVG Export Plug-In . SVG Version: 6.00 Build 0)  -->
<!DOCTYPE svg PUBLIC "-//W3C//DTD SVG 1.1//EN" "http://www.w3.org/Graphics/SVG/1.1/DTD/svg11.dtd" [
	<!ENTITY st0 "fill:#FFFFFF;">
	<!ENTITY st1 "fill:#DA121A;">
	<!ENTITY st2 "fill:#0F47AF;">
	<!ENTITY st3 "fill:none;stroke:#000000;stroke-width:1.0362;stroke-linecap:round;stroke-linejoin:round;stroke-miterlimit:10;">
	<!ENTITY st4 "fill:none;stroke:#000000;stroke-width:1.0362;stroke-miterlimit:10;">
	<!ENTITY st5 "fill:none;stroke:#000000;stroke-width:1.0362;stroke-linejoin:round;stroke-miterlimit:10;">
	<!ENTITY st6 "fill:none;stroke:#000000;stroke-width:0.8116;stroke-miterlimit:10;">
]>
<svg version="1.1" id="Ebene_1" xmlns="http://www.w3.org/2000/svg" xmlns:xlink="http://www.w3.org/1999/xlink" x="0px" y="0px"
	 width="708.661px" height="425.197px" viewBox="0 0 708.661 425.197" style="enable-background:new 0 0 708.661 425.197;"
	 xml:space="preserve">
<rect x="0" y="85.039" style="&st0;" width="708.661" height="255.118"/>
<rect x="0" y="0" style="&st1;" width="708.661" height="85.039"/>
<rect x="0" y="340.157" style="&st1;" width="708.661" height="85.039"/>
<g>
	<path d="M431.717,104.011c3.428,0.929,8.519,2.752,10.426,1.527c1.298-0.831,1.785-2.164,1.745-3.973
		c-0.243-1.554,0.71-0.959,1.318-0.16c6.086,8.716,9.939,14.915,20.284,23.348c1.42,1.156,1.015,1.42-0.811,1.42
		c-12.171,0-13.794,6.491-13.794,19.676c0,0-3.042,64.221-4.462,96.351c-0.811,16.654-3.894,27.08-10.912,40.691
		c-6.31,12.212-15.579,22.192-26.958,30.914c-12.617,9.534-34.586,17.85-51.483,17.85c-20.467,0-41.99-8.316-56.209-19.068
		c-13.874-10.547-26.248-24.462-32.881-41.928c-3.793-10.02-4.706-17.891-5.542-30.285l-6.54-97.142
		c-2.182-14.625-2.791-16.248-12.122-17.87c-1.826-0.325-1.913-0.568-0.406-2.029c9.374-9.047,13.48-16.601,17.445-22.11
		c0.609-0.861,1.262-1.838,1.217-0.013c-0.051,2.049,0.613,4.144,2.418,4.564c1.481,0.349,3.692-0.543,5.7-1.116
		c53.957-15.416,112.377-13.996,161.567-0.665v0.012V104.011z"/>
	<path style="&st2;" d="M441.874,212.951l-0.721,25.201c0,11.56-2.292,23.124-6.735,33.813
		c-4.422,10.669-10.955,20.467-19.149,28.661c-8.173,8.116-17.972,14.809-28.641,19.066c-10.694,4.464-22.253,6.694-33.817,6.694
		c-11.56,0-23.124-2.23-33.813-6.694c-10.669-4.257-20.467-10.951-28.641-19.066c-8.194-8.194-14.726-17.993-19.149-28.661
		c-4.443-10.689-6.735-22.253-6.735-33.813l-0.609-25.201H441.874z"/>
	<path style="&st0;" d="M454.337,119.892l-0.406,0.141c-11.664,4.87-9.736,17.081-10.142,25.822l-1.915,67.096H263.863
		l-1.637-67.846c-0.054-8.762-0.485-21.134-10.478-25.051l-0.46-0.265C327.738,82.224,416.138,100.419,454.337,119.892z"/>
	<path style="&st0;" d="M364.187,249.698c0,19.738,2.06,40.254,12.322,58.537c-7.788-3.486-18.693-4.277-23.7-4.277
		c-5.003,0-16.09,0.792-23.878,4.277c9.326-15.738,12.132-35.886,12.468-54.545c0.021-1.339,0.033-2.669,0.033-3.992
		c-11.369,0-19.684,1.513-33.274,6.959c1.579-4.236,4.124-9.38,4.124-17.694s-1.956-13.421-3.54-17.657
		c13.135,6.959,29.407,10.379,44.067,10.379c14.664,0,30.933-3.419,44.067-10.379c-1.583,4.236-3.535,9.342-3.535,17.657
		s2.541,13.458,4.124,17.694C383.87,251.21,375.56,249.698,364.187,249.698z"/>
	<path d="M341.431,249.698c0,1.322-0.012,2.653-0.033,3.992c-9.798,0.311-19.746,1.832-34.025,6.445
		c-0.535,0.174-1.111-0.199-0.564-1.078c0.394-0.634,0.904-1.471,1.347-2.4C321.748,251.21,330.062,249.698,341.431,249.698z"/>
	<path d="M401.813,261.685c-14.548-5.761-25.035-7.386-34.526-7.68c0,23.642,4.555,36.984,12.43,55.669
		c0.452,1.078,0.17,2.317-1.451,1.762c-5.334-1.815-10.453-2.781-14.859-3.295c-4.406-0.514-8.103-0.572-10.598-0.572
		c-4.99,0-13.151-0.062-23.886,3.867c-1.579,0.58-1.832-0.738-1.306-1.364c0.464-0.56,0.887-1.185,1.314-1.836
		c7.788-3.486,18.875-4.277,23.878-4.277c5.007,0,15.912,0.792,23.7,4.277c-10.263-18.283-12.322-38.799-12.322-58.537
		c11.373,0,19.684,1.513,33.279,6.959c-1.583-4.236-4.124-9.38-4.124-17.694s1.952-13.421,3.535-17.657c0,0,2.458-1.272,3.258-1.724
		c1.737-0.978,2.454,0.037,1.62,1.33c-3.511,5.442-5.098,11.916-5.098,18.051c0,6.089,2.404,14.051,5.861,21.628
		C402.87,261.357,402.605,261.999,401.813,261.685z"/>
	<polygon points="442.209,201.201 442.072,205.901 263.693,205.901 263.581,201.201 	"/>
	<path d="M433.671,178.872h-6.648l-59.229-59.229l19.211-19.211c1.948,0.265,3.879,0.551,5.786,0.858l-6.47,6.47l-11.879,11.883
		l16.434,16.434L433.671,178.872z"/>
	<polygon points="355.33,138.751 315.208,178.872 308.56,178.872 333.346,154.091 352.01,135.427 	"/>
	<polygon style="&st1;" points="442.777,181.227 442.209,201.201 263.581,201.201 263.498,197.872 263.34,191.212 263.257,187.883 
		263.179,184.555 263.096,181.227 	"/>
	<path style="&st1;" d="M427.023,178.872H398.78l-25.35-25.35l-19.758-19.758l-1.662,1.662l-18.664,18.664l-24.786,24.782h-28.243
		l80.737-80.737c2.574,0.104,5.127,0.24,7.655,0.414c6.259,0.431,12.368,1.069,18.295,1.882l-19.211,19.211L427.023,178.872z"/>
	<g>
		<path style="&st3;" d="M360.52,245.445c11.753,0,22.22,2.027,30.512,4.735c-1.152-1.632-1.423-7.461-1.423-11.217
			s0.271-9.585,1.423-11.217c-7.861,4.318-24.855,7.668-38.223,7.668c-13.368,0-30.362-3.35-38.223-7.668
			c1.152,1.632,1.423,7.461,1.423,11.217s-0.271,9.585-1.423,11.217c8.292-2.709,18.759-4.735,30.512-4.735
			c2.01,8.725,0,38.636-8.055,55.914c1.865-0.805,12.138-1.13,15.765-1.13s13.9,0.325,15.765,1.13
			C360.52,284.082,358.509,254.17,360.52,245.445z"/>
		<path style="&st3;" d="M352.809,303.959c5.005,0,15.91,0.791,23.699,4.277c-10.262-18.283-12.321-38.8-12.321-58.539
			c11.372,0,19.683,1.515,33.277,6.959c-1.582-4.235-4.124-9.378-4.124-17.693c0-8.316,1.955-13.421,3.537-17.655
			c-13.136,6.956-29.404,10.376-44.067,10.376s-30.932-3.419-44.067-10.376c1.582,4.235,3.537,9.34,3.537,17.655
			c0,8.316-2.542,13.459-4.124,17.693c13.594-5.445,21.905-6.959,33.277-6.959c0,19.739-2.508,41.672-12.502,58.539
			C336.717,304.751,347.804,303.959,352.809,303.959z"/>
		<path style="&st4;" d="M314.586,250.181c-1.732,2.098-3.329,3.789-6.432,6.476"/>
		<path style="&st4;" d="M391.032,250.181c1.732,2.098,3.329,3.789,6.432,6.476"/>
		<path style="&st4;" d="M396.876,221.308c-3.052,3.111-4.617,4.76-5.844,6.438"/>
		<path style="&st4;" d="M308.742,221.308c3.052,3.111,4.617,4.76,5.844,6.438"/>
		<path style="&st4;" d="M328.929,308.237c3.465-3.239,5.84-5.27,8.115-6.878"/>
		<path style="&st4;" d="M376.508,308.237c-3.465-3.239-5.659-5.27-7.934-6.878"/>
		<line style="&st4;" x1="341.431" y1="249.697" x2="345.099" y2="245.445"/>
		<line style="&st4;" x1="364.187" y1="249.697" x2="360.52" y2="245.445"/>
		<path style="&st5;" d="M308.154,256.657c-0.443,0.927-0.95,1.767-1.345,2.401c-0.549,0.88,0.028,1.25,0.563,1.078
			c14.298-4.618,24.247-6.136,34.059-6.444"/>
		<path style="&st3;" d="M328.929,308.237c-0.425,0.651-0.848,1.277-1.314,1.833c-0.526,0.628-0.272,1.946,1.308,1.367
			c10.732-3.929,18.896-3.868,23.885-3.868l0,0c4.99,0,14.782,0.235,25.455,3.868c1.623,0.553,1.905-0.684,1.451-1.762
			c-7.875-18.686-12.427-32.029-12.427-55.672c9.489,0.298,19.977,1.92,34.526,7.683c0.789,0.313,1.053-0.33,0.704-1.097
			c-3.455-7.575-5.862-15.538-5.862-21.626c0-6.134,1.59-12.607,5.098-18.049c0.835-1.295,0.119-2.313-1.618-1.332
			c-0.803,0.453-3.259,1.726-3.259,1.726"/>
	</g>
	<line style="&st3;" x1="441.869" y1="212.947" x2="263.862" y2="212.947"/>
	<line style="&st3;" x1="442.071" y1="205.897" x2="263.692" y2="205.897"/>
	<polyline style="&st3;" points="347.947,97.943 273.591,172.299 262.88,172.299 	"/>
	<line style="&st3;" x1="263.578" y1="201.198" x2="442.205" y2="201.198"/>
	<line style="&st4;" x1="355.331" y1="138.749" x2="315.207" y2="178.872"/>
	<line style="&st3;" x1="387.002" y1="100.431" x2="308.561" y2="178.872"/>
	<polyline style="&st3;" points="433.67,178.872 374.439,119.641 392.789,101.29 	"/>
	<line style="&st3;" x1="374.439" y1="119.641" x2="374.439" y2="119.641"/>
	<line style="&st4;" x1="427.023" y1="178.872" x2="367.792" y2="119.641"/>
	<line style="&st3;" x1="442.776" y1="181.225" x2="263.096" y2="181.225"/>
	<line style="&st3;" x1="276.987" y1="178.872" x2="357.828" y2="98.031"/>
	<line style="&st3;" x1="280.314" y1="178.872" x2="361.047" y2="98.139"/>
	<line style="&st4;" x1="398.777" y1="178.872" x2="353.669" y2="133.764"/>
	<line style="&st4;" x1="352.007" y1="135.425" x2="395.454" y2="178.872"/>
	<polygon style="&st3;" points="355.331,148.718 332.223,171.825 378.438,171.825 	"/>
	<polyline style="&st3;" points="401.268,102.781 384.408,119.641 436.59,171.822 443.045,171.822 	"/>
	<line style="&st3;" x1="263.039" y1="178.872" x2="442.843" y2="178.872"/>
	<circle style="&st3;" cx="291.715" cy="191.211" r="3.525"/>
	<circle style="&st3;" cx="352.81" cy="120.499" r="3.525"/>
	<circle style="&st3;" cx="413.905" cy="191.211" r="3.525"/>
	<g>
		<g>
			<path d="M278.682,184.856l-15.506,0.216c-0.286,0.004-0.521-0.225-0.525-0.511c-0.004-0.286,0.225-0.521,0.511-0.525
				c0.004,0,0.01,0,0.014,0l15.506,0.216c0.167,0.002,0.3,0.14,0.298,0.307C278.977,184.722,278.845,184.853,278.682,184.856z"/>
		</g>
		<g>
			<path d="M277.944,188.184l-14.687,0.216c-0.286,0.004-0.521-0.224-0.526-0.51s0.224-0.521,0.51-0.526c0.004,0,0.011,0,0.015,0
				l14.687,0.216c0.167,0.002,0.3,0.14,0.298,0.307C278.239,188.051,278.106,188.182,277.944,188.184z"/>
		</g>
		<g>
			<path d="M280.638,191.513l-17.301,0.216c-0.286,0.004-0.521-0.225-0.525-0.512c-0.004-0.286,0.226-0.521,0.512-0.525
				c0.003,0,0.009,0,0.013,0l17.301,0.216c0.167,0.002,0.301,0.139,0.298,0.306C280.934,191.379,280.801,191.511,280.638,191.513z"
				/>
		</g>
		<g>
			<path d="M280.016,194.842l-16.594,0.216c-0.286,0.004-0.521-0.225-0.525-0.511s0.225-0.521,0.511-0.525c0.004,0,0.01,0,0.013,0
				l16.594,0.216c0.167,0.002,0.3,0.139,0.298,0.306C280.312,194.708,280.179,194.84,280.016,194.842z"/>
		</g>
		<g>
			<path d="M277.477,198.171l-13.98,0.216c-0.286,0.004-0.522-0.224-0.526-0.51s0.224-0.522,0.51-0.526c0.005,0,0.011,0,0.016,0
				l13.98,0.216c0.167,0.003,0.3,0.14,0.298,0.307C277.772,198.037,277.64,198.168,277.477,198.171z"/>
		</g>
		<g>
			<path d="M420.784,184.251l21.66-0.216c0.286-0.003,0.52,0.227,0.523,0.513s-0.227,0.52-0.513,0.523c-0.003,0-0.008,0-0.01,0
				l-21.66-0.216c-0.167-0.002-0.301-0.138-0.299-0.305C420.486,184.386,420.62,184.253,420.784,184.251z"/>
		</g>
		<g>
			<path d="M419.955,187.58l22.409-0.216c0.286-0.003,0.52,0.227,0.523,0.513s-0.227,0.52-0.513,0.523c-0.002,0-0.008,0-0.01,0
				l-22.409-0.216c-0.167-0.002-0.301-0.138-0.299-0.305C419.657,187.714,419.791,187.582,419.955,187.58z"/>
		</g>
		<g>
			<path d="M423.478,190.909l18.805-0.216c0.286-0.003,0.521,0.226,0.524,0.512s-0.226,0.521-0.512,0.524c-0.003,0-0.009,0-0.012,0
				l-18.805-0.216c-0.167-0.002-0.301-0.139-0.299-0.306C423.181,191.043,423.314,190.911,423.478,190.909z"/>
		</g>
		<g>
			<path d="M430.161,194.238l12.037-0.216c0.286-0.005,0.522,0.223,0.527,0.509s-0.223,0.522-0.509,0.527c-0.005,0-0.013,0-0.019,0
				l-12.037-0.216c-0.167-0.003-0.3-0.141-0.297-0.308C429.868,194.372,430,194.241,430.161,194.238z"/>
		</g>
		<g>
			<path d="M422.856,197.567l19.266-0.216c0.286-0.003,0.521,0.226,0.524,0.512c0.003,0.286-0.226,0.521-0.512,0.524
				c-0.003,0-0.009,0-0.012,0l-19.266-0.216c-0.167-0.002-0.301-0.139-0.299-0.306C422.559,197.701,422.693,197.569,422.856,197.567
				z"/>
		</g>
		<g>
			<path d="M403.118,179.121l-13.252-13.557c-0.117-0.119-0.115-0.311,0.005-0.427c0.118-0.115,0.305-0.114,0.423,0l13.557,13.252
				c0.205,0.2,0.208,0.528,0.008,0.733s-0.528,0.208-0.733,0.008C403.125,179.127,403.121,179.123,403.118,179.121z"/>
		</g>
		<g>
			<path d="M407.826,179.121l-11.856-12.161c-0.117-0.12-0.114-0.311,0.005-0.427c0.118-0.115,0.305-0.114,0.422,0l12.161,11.856
				c0.205,0.2,0.209,0.528,0.009,0.733s-0.528,0.209-0.733,0.009C407.833,179.128,407.829,179.123,407.826,179.121z"/>
		</g>
		<g>
			<path d="M412.534,179.121l-8.802-9.107c-0.116-0.12-0.113-0.311,0.007-0.427c0.117-0.114,0.304-0.112,0.42,0l9.107,8.802
				c0.206,0.199,0.211,0.527,0.012,0.733c-0.199,0.206-0.527,0.211-0.733,0.012C412.543,179.13,412.538,179.124,412.534,179.121z"/>
		</g>
		<g>
			<path d="M417.242,179.121l-11.972-12.277c-0.117-0.12-0.114-0.311,0.005-0.427c0.118-0.115,0.305-0.114,0.422,0l12.277,11.972
				c0.205,0.2,0.209,0.528,0.009,0.733c-0.2,0.205-0.528,0.209-0.733,0.009C417.249,179.127,417.244,179.123,417.242,179.121z"/>
		</g>
		<g>
			<path d="M421.95,179.121l-14.284-14.589c-0.117-0.119-0.115-0.311,0.005-0.427c0.118-0.115,0.306-0.115,0.423,0l14.589,14.284
				c0.204,0.2,0.208,0.528,0.008,0.733s-0.528,0.208-0.733,0.008C421.956,179.126,421.952,179.123,421.95,179.121z"/>
		</g>
		<g>
			<path d="M283.983,178.388l14.274-13.969c0.119-0.117,0.311-0.115,0.427,0.005c0.115,0.118,0.114,0.306,0,0.423l-13.969,14.274
				c-0.2,0.204-0.528,0.208-0.733,0.008c-0.204-0.2-0.208-0.528-0.008-0.733C283.977,178.394,283.981,178.39,283.983,178.388z"/>
		</g>
		<g>
			<path d="M288.019,178.388l12.181-11.876c0.12-0.117,0.311-0.114,0.427,0.005c0.115,0.118,0.114,0.305,0,0.422l-11.876,12.181
				c-0.2,0.205-0.528,0.209-0.733,0.009c-0.205-0.2-0.209-0.528-0.009-0.733C288.012,178.395,288.016,178.391,288.019,178.388z"/>
		</g>
		<g>
			<path d="M292.054,178.388l10.329-10.024c0.12-0.116,0.311-0.113,0.427,0.006c0.114,0.118,0.113,0.304,0,0.421l-10.024,10.329
				c-0.199,0.205-0.527,0.21-0.733,0.011c-0.205-0.199-0.21-0.527-0.011-0.733C292.046,178.396,292.051,178.391,292.054,178.388z"/>
		</g>
		<g>
			<path d="M296.089,178.388l7.381-7.076c0.12-0.115,0.312-0.111,0.427,0.009c0.112,0.117,0.111,0.302,0,0.418l-7.076,7.381
				c-0.198,0.207-0.526,0.214-0.733,0.016c-0.207-0.198-0.214-0.526-0.015-0.733C296.078,178.399,296.084,178.393,296.089,178.388z"
				/>
		</g>
		<g>
			<path d="M300.125,178.388l11.373-11.068c0.12-0.116,0.311-0.114,0.427,0.006c0.114,0.118,0.114,0.305,0,0.422l-11.068,11.373
				c-0.2,0.205-0.528,0.21-0.733,0.01s-0.21-0.528-0.01-0.733C300.117,178.395,300.122,178.391,300.125,178.388z"/>
		</g>
		<g>
			<path d="M304.171,178.377l16.067-14.833c0.123-0.113,0.314-0.106,0.427,0.017c0.112,0.121,0.106,0.309-0.013,0.423
				l-15.771,15.148c-0.206,0.198-0.534,0.192-0.733-0.015c-0.198-0.206-0.192-0.534,0.015-0.733
				C304.165,178.382,304.169,178.379,304.171,178.377z"/>
		</g>
		<g>
			<path d="M351.8,110.994l12.722-13.027c0.2-0.205,0.528-0.209,0.733-0.009c0.205,0.2,0.209,0.528,0.009,0.733
				c-0.002,0.002-0.006,0.006-0.009,0.009l-13.027,12.722c-0.119,0.117-0.311,0.114-0.427-0.005
				C351.686,111.298,351.686,111.111,351.8,110.994z"/>
		</g>
		<g>
			<path d="M357.969,108.86l10.385-10.69c0.199-0.205,0.527-0.21,0.733-0.011s0.21,0.527,0.011,0.733
				c-0.003,0.003-0.008,0.008-0.011,0.011l-10.69,10.385c-0.12,0.116-0.311,0.114-0.427-0.006
				C357.855,109.164,357.856,108.977,357.969,108.86z"/>
		</g>
		<g>
			<path d="M358.867,111.998l13.189-13.494c0.2-0.205,0.528-0.208,0.733-0.008c0.205,0.2,0.208,0.528,0.008,0.733
				c-0.002,0.002-0.006,0.006-0.008,0.008l-13.494,13.189c-0.119,0.117-0.311,0.115-0.427-0.005
				C358.752,112.303,358.752,112.115,358.867,111.998z"/>
		</g>
		<g>
			<path d="M359.462,115.438l16.295-16.6c0.2-0.204,0.528-0.207,0.733-0.007s0.207,0.529,0.007,0.733
				c-0.002,0.002-0.005,0.005-0.007,0.007l-16.6,16.295c-0.119,0.117-0.31,0.115-0.427-0.004
				C359.346,115.744,359.347,115.556,359.462,115.438z"/>
		</g>
		<g>
			<path d="M363.42,115.515l15.986-16.292c0.2-0.204,0.528-0.207,0.733-0.007c0.204,0.2,0.207,0.529,0.007,0.733
				c-0.002,0.002-0.005,0.005-0.007,0.007l-16.292,15.986c-0.119,0.117-0.31,0.115-0.427-0.004
				C363.305,115.821,363.305,115.633,363.42,115.515z"/>
		</g>
		<g>
			<path d="M369.903,113.81l13.943-14.088c0.201-0.203,0.529-0.205,0.733-0.004c0.203,0.201,0.205,0.529,0.004,0.733
				c-0.002,0.002-0.006,0.006-0.008,0.008l-14.246,13.781c-0.12,0.116-0.311,0.113-0.427-0.007
				C369.786,114.114,369.788,113.926,369.903,113.81z"/>
		</g>
	</g>
	<path style="&st0;" d="M260.578,105.475c2.209,4.065,5.819,2.223,11.377,0.734c58.561-15.698,120.856-11.747,163.474,0.44
		c5.68,1.621,6.714,2.208,9.777-1.012l9.535,14.049c-38.135-19.676-127.672-38.054-204.064-0.062L260.578,105.475z"/>
	<path style="&st6;" d="M251.746,120.051c9.994,3.916,10.424,16.289,10.477,25.052l2.248,93.045c0,11.563,2.293,23.124,6.734,33.815
		c4.422,10.67,10.954,20.467,19.149,28.661c8.175,8.114,17.972,14.807,28.642,19.068c10.689,4.462,22.252,6.694,33.815,6.694
		c11.562,0,23.124-2.232,33.815-6.694c10.67-4.261,20.467-10.954,28.641-19.068c8.196-8.195,14.727-17.992,19.149-28.661
		c4.442-10.691,6.734-22.252,6.734-33.815l2.637-92.294c0.406-8.743-1.522-20.955,10.142-25.822l0.406-0.142
		c-38.195-19.471-126.596-37.668-203.048-0.101L251.746,120.051z"/>
</g>
<g>
</g>
<g>
</g>
<g>
</g>
<g>
</g>
<g>
</g>
<g>
</g>
</svg>
