<?xml version="1.0" encoding="UTF-8" standalone="no"?>
<svg
   xmlns:dc="http://purl.org/dc/elements/1.1/"
   xmlns:cc="http://creativecommons.org/ns#"
   xmlns:rdf="http://www.w3.org/1999/02/22-rdf-syntax-ns#"
   xmlns:svg="http://www.w3.org/2000/svg"
   xmlns="http://www.w3.org/2000/svg"
   xmlns:sodipodi="http://sodipodi.sourceforge.net/DTD/sodipodi-0.dtd"
   xmlns:inkscape="http://www.inkscape.org/namespaces/inkscape"
   sodipodi:docname="Flag of Kaiserslautern.svg"
   inkscape:version="1.0 (4035a4fb49, 2020-05-01)"
   id="svg8"
   version="1.1"
   viewBox="0 0 132.29167 79.374999"
   height="300"
   width="500">
  <defs
     id="defs2" />
  <sodipodi:namedview
     inkscape:window-maximized="1"
     inkscape:window-y="-8"
     inkscape:window-x="-8"
     inkscape:window-height="987"
     inkscape:window-width="1680"
     units="px"
     showgrid="false"
     inkscape:document-rotation="0"
     inkscape:current-layer="layer1"
     inkscape:document-units="px"
     inkscape:cy="211.47032"
     inkscape:cx="51.705944"
     inkscape:zoom="0.7"
     inkscape:pageshadow="2"
     inkscape:pageopacity="0.0"
     borderopacity="1.0"
     bordercolor="#666666"
     pagecolor="#ffffff"
     id="base" />
  <metadata
     id="metadata5">
    <rdf:RDF>
      <cc:Work
         rdf:about="">
        <dc:format>image/svg+xml</dc:format>
        <dc:type
           rdf:resource="http://purl.org/dc/dcmitype/StillImage" />
        <dc:title></dc:title>
      </cc:Work>
    </rdf:RDF>
  </metadata>
  <g
     id="layer1"
     inkscape:groupmode="layer"
     inkscape:label="Calque 1">
    <g
       id="g210">
      <rect
         style="fill:#ffffff;fill-opacity:1;fill-rule:evenodd;stroke-width:0.32904"
         id="rect24"
         width="132.29167"
         height="39.6875"
         x="-2.5431316e-06"
         y="-1.4210855e-14" />
      <rect
         y="39.6875"
         x="-2.5431316e-06"
         height="39.6875"
         width="132.29167"
         id="rect198"
         style="fill:#d4011c;fill-opacity:1;fill-rule:evenodd;stroke-width:0.32904" />
    </g>
    <g
       fill-rule="evenodd"
       transform="matrix(0.23721609,0,0,-0.23721609,-4.4496746,127.60937)"
       id="g1036">
      <path
         d="m 403.44,349.7604 c 0.12,-58.56 -47.52,-106.08 -105.84,-106.08 -58.44,0 -105.96,47.52 -105.96,105.84 v 148.08 h 62.64 149.28 c 0,-71.64 0,-72.6 -0.12,-147.84"
         id="path942" />
      <path
         d="m 341.04,258.8004 c 33.84,16.2 57.24,50.88 57.24,90.84 v 143.28 c -57.36,0 -57.36,0 -57.36,0 0.12,-234.12 0.12,-234.12 0.12,-234.12"
         fill="#d4011c"
         id="path944" />
      <path
         d="m 336.12,256.5204 c -12,-4.92 -24.96,-7.56 -38.52,-7.56 -13.8,0 -26.76,2.76 -38.76,7.68 v 236.28 h 77.28 c 0,-236.4 0,-236.4 0,-236.4"
         fill="#ffffff"
         id="path946" />
      <path
         d="m 254.28,258.8004 c -34.08,16.08 -57.48,50.76 -57.48,90.72 0,47.76 0.24,95.52 0,143.4 h 57.48 c 0,-234.12 0,-234.12 0,-234.12"
         fill="#d4011c"
         id="path948" />
      <path
         d="m 273.6,260.4804 c -2.4,0 -3.84,3.36 -2.52,5.16 6.36,7.56 13.2,15.6 22.92,30.36 -2.88,6.84 -4.8,9.72 -8.88,22.44 -7.92,-11.88 -7.92,-11.88 -7.92,-11.88 -2.76,-3 -6,2.28 -6.12,5.52 -0.12,5.64 -0.36,12.6 0,17.76 0.24,4.8 4.08,9.24 7.2,12.6 -4.68,18.48 -5.88,36.72 -6.36,52.44 -9.96,2.4 -9.96,15.48 -5.64,20.88 1.92,3.36 7.56,7.8 7.56,7.92 1.8,15.72 7.32,29.04 12.84,43.32 0.72,2.16 1.56,5.28 0.96,7.2 -0.36,1.44 -0.84,2.52 -1.32,4.08 -0.36,2.64 2.16,4.92 4.92,4.08 1.8,-0.48 3.36,-2.88 3.6,-4.44 -0.24,2.4 1.2,6.84 3.12,7.56 2.16,1.32 4.68,-0.12 4.68,-3.12 -0.36,-2.64 -0.72,-4.44 -0.12,-8.04 0.12,-2.52 4.2,-9.12 6.96,-13.8 6.72,-12.12 10.2,-22.8 12.72,-35.04 1.8,-9.6 2.64,-18.84 3,-28.56 0,-29.64 -0.12,-29.64 -0.36,-50.76 0,-7.68 -0.24,-15.36 -0.6,-23.04 -0.24,-4.32 -0.6,-5.64 -1.32,-6.72 -2.88,-3.48 -8.88,4.2 -9.6,4.92 -3.36,-9.72 -9.6,-21.24 -12.12,-25.92 7.2,-14.88 17.28,-25.92 20.4,-30.24 2.16,-3.24 -3.96,-4.92 -6.84,-4.68 -6.24,0.12 -10.32,3 -16.08,7.2 -1.2,0.96 -1.68,0.96 -3.24,0.12 -7.08,-4.44 -15,-7.92 -21.84,-7.32"
         id="path950" />
      <g
         fill="#25bbe3"
         id="g1028">
        <path
           d="m 299.52,274.6404 c -2.28,1.68 -2.52,1.68 -5.64,-0.12 -2.52,-1.8 -11.04,-7.08 -14.76,-8.04 4.44,3.84 13.8,15.72 18.36,22.8 4.68,-8.88 13.32,-20.64 15.96,-23.4 -3.72,0.12 -12,7.32 -13.92,8.76"
           id="path952" />
        <path
           d="m 276.24,314.3604 c -0.36,3.84 -0.24,12.48 0,15 0,1.2 2.88,5.88 3.72,6.24 0.36,-1.2 2.52,-9.24 3.12,-10.92 -6.84,-10.32 -6.84,-10.32 -6.84,-10.32"
           id="path954" />
        <path
           d="m 315.24,326.8404 c 1.08,2.28 4.56,15.48 5.16,17.88 0,-2.04 -0.36,-19.08 -0.72,-21.48 0.12,-2.4 -4.32,3.48 -4.44,3.6"
           id="path956" />
        <path
           d="m 284.64,444.5604 c 0.24,2.76 8.28,21.84 9,24.12 0.48,0.84 1.56,5.04 1.44,7.08 3.24,-10.68 12.48,-20.4 15,-30.12 -5.64,-4.92 -18.84,-5.52 -25.44,-1.08"
           id="path958" />
        <path
           d="m 309.96,422.0004 c 0,-2.4 -1.56,-4.2 -3.36,-4.2 -1.92,0 -3.48,1.8 -3.48,4.2 0,2.4 1.56,4.32 3.48,4.32 1.8,0 3.36,-1.92 3.36,-4.32"
           id="path960" />
        <path
           d="m 318.24,418.2804 c -1.92,0 -3.48,2.04 -3.48,4.32 0,1.68 0.72,3.12 1.92,3.72 0.48,-2.64 0.96,-5.28 1.56,-8.04"
           id="path962" />
        <path
           d="m 301.92,411.5604 c 0,-2.4 -1.56,-4.2 -3.48,-4.2 -1.8,0 -3.36,1.8 -3.36,4.2 0,2.4 1.56,4.2 3.36,4.2 1.92,0 3.48,-1.8 3.48,-4.2"
           id="path964" />
        <path
           d="m 285.84,411.3204 c 0,-1.92 -1.32,-3.6 -2.64,-4.08 0,2.64 0.24,5.52 0.48,8.04 1.2,-0.6 2.16,-2.16 2.16,-3.96"
           id="path966" />
        <path
           d="m 309.48,401.3604 c 0,-2.28 -1.56,-4.32 -3.36,-4.32 -1.92,0 -3.48,2.04 -3.48,4.32 0,2.28 1.56,4.32 3.48,4.32 1.8,0 3.36,-2.04 3.36,-4.32"
           id="path968" />
        <path
           d="m 316.68,411.8004 c 0,-2.4 -1.56,-4.32 -3.48,-4.32 -1.8,0 -3.24,1.92 -3.24,4.32 0,2.4 1.44,4.2 3.24,4.2 1.92,0 3.48,-1.8 3.48,-4.2"
           id="path970" />
        <path
           d="m 320.28,397.0404 c -0.24,0 -0.36,0 -0.6,0 -1.92,0 -3.48,1.92 -3.48,4.32 0,2.28 1.68,4.2 3.6,4.2 0.24,-2.76 0.36,-5.64 0.48,-8.52"
           id="path972" />
        <path
           d="m 316.56,391.1604 c 0,-2.4 -1.44,-4.32 -3.36,-4.32 -1.92,0 -3.36,1.92 -3.36,4.32 0,2.28 1.44,4.2 3.36,4.2 1.92,0 3.36,-1.92 3.36,-4.2"
           id="path974" />
        <path
           d="m 319.8,375.8004 c -0.12,-0.12 -0.36,-0.12 -0.6,-0.12 -1.8,0 -3.36,2.04 -3.36,4.44 0,2.28 1.56,4.2 3.36,4.2 0.48,0 0.84,-0.12 1.08,-0.24 -0.48,-8.28 -0.48,-8.28 -0.48,-8.28"
           id="path976" />
        <path
           d="m 309.12,380.3604 c 0,-2.4 -1.56,-4.2 -3.48,-4.2 -1.92,0 -3.36,1.8 -3.36,4.2 0,2.4 1.44,4.32 3.36,4.32 1.92,0 3.48,-1.92 3.48,-4.32"
           id="path978" />
        <path
           d="m 316.2,369.5604 c 0,-2.4 -1.44,-4.32 -3.24,-4.32 -1.92,0 -3.48,1.92 -3.48,4.32 0,2.28 1.56,4.2 3.48,4.2 1.8,0 3.24,-1.92 3.24,-4.2"
           id="path980" />
        <path
           d="m 316.68,354.3204 c -1.68,0.24 -2.88,2.04 -2.88,4.2 0,2.28 1.56,4.2 3.36,4.2 0.36,0 0.72,0 1.08,-0.12 -0.6,-2.88 -0.96,-5.64 -1.56,-8.28"
           id="path982" />
        <path
           d="m 301.92,390.8004 c 0,-2.28 -1.56,-4.2 -3.48,-4.2 -1.8,0 -3.24,1.92 -3.24,4.2 0,2.4 1.44,4.32 3.24,4.32 1.92,0 3.48,-1.92 3.48,-4.32"
           id="path984" />
        <path
           d="m 294.48,401.2404 c 0,-2.28 -1.56,-4.32 -3.36,-4.32 -1.92,0 -3.36,2.04 -3.36,4.32 0,2.4 1.44,4.32 3.36,4.32 1.8,0 3.36,-1.92 3.36,-4.32"
           id="path986" />
        <path
           d="m 288,390.5604 c 0,-2.28 -1.44,-4.32 -3.36,-4.32 -1.8,0 -3.36,2.04 -3.36,4.32 0,2.4 1.56,4.32 3.36,4.32 1.92,0 3.36,-1.92 3.36,-4.32"
           id="path988" />
        <path
           d="m 281.28,379.7604 c 0,-1.92 -0.84,-3.48 -2.28,-4.2 -0.12,2.88 -0.48,5.64 -0.6,8.4 1.68,-0.24 2.88,-2.04 2.88,-4.2"
           id="path990" />
        <path
           d="m 283.68,357.4404 c 0,-1.56 -0.72,-2.88 -1.68,-3.6 -0.48,2.64 -0.96,5.16 -1.44,7.92 1.8,-0.36 3.12,-2.16 3.12,-4.32"
           id="path992" />
        <path
           d="m 294.84,380.0004 c 0,-2.4 -1.56,-4.44 -3.48,-4.44 -1.8,0 -3.36,2.04 -3.36,4.44 0,2.28 1.56,4.2 3.36,4.2 1.92,0 3.48,-1.92 3.48,-4.2"
           id="path994" />
        <path
           d="m 287.88,369.5604 c 0,-2.4 -1.44,-4.32 -3.36,-4.32 -1.8,0 -3.36,1.92 -3.36,4.32 0,2.28 1.56,4.2 3.36,4.2 1.92,0 3.36,-1.92 3.36,-4.2"
           id="path996" />
        <path
           d="m 301.92,369.8004 c 0,-2.4 -1.44,-4.32 -3.36,-4.32 -1.92,0 -3.36,1.92 -3.36,4.32 0,2.28 1.44,4.32 3.36,4.32 1.92,0 3.36,-2.04 3.36,-4.32"
           id="path998" />
        <path
           d="m 295.68,359.3604 c 0,-2.4 -1.56,-4.2 -3.48,-4.2 -1.8,0 -3.36,1.8 -3.36,4.2 0,2.4 1.56,4.2 3.36,4.2 1.92,0 3.48,-1.8 3.48,-4.2"
           id="path1000" />
        <path
           d="m 290.16,347.4804 c 0,-2.4 -1.56,-4.44 -3.48,-4.44 -1.8,0 -3.24,2.04 -3.24,4.44 0,2.28 1.44,4.2 3.24,4.2 1.92,0 3.48,-1.92 3.48,-4.2"
           id="path1002" />
        <path
           d="m 295.44,335.8404 c 0,-2.4 -1.56,-4.2 -3.36,-4.2 -1.92,0 -3.48,1.8 -3.48,4.2 0,2.4 1.56,4.2 3.48,4.2 1.8,0 3.36,-1.8 3.36,-4.2"
           id="path1004" />
        <path
           d="m 302.04,324.2004 c 0,-2.4 -1.56,-4.32 -3.48,-4.32 -1.8,0 -3.36,1.92 -3.36,4.32 0,2.28 1.56,4.32 3.36,4.32 1.92,0 3.48,-2.04 3.48,-4.32"
           id="path1006" />
        <path
           d="m 291,324.3204 c 0,-1.08 -0.36,-1.92 -0.84,-2.64 -2.16,6.84 -2.16,6.84 -2.16,6.84 1.68,-0.12 3,-2.04 3,-4.2"
           id="path1008" />
        <path
           d="m 306.96,322.1604 c -0.24,0.6 -0.48,1.44 -0.48,2.16 0,2.16 1.2,3.96 2.76,4.2 -2.28,-6.36 -2.28,-6.36 -2.28,-6.36"
           id="path1010" />
        <path
           d="m 301.44,310.8804 c 0,-2.4 -1.44,-4.32 -3.24,-4.32 -1.92,0 -3.48,1.92 -3.48,4.32 0,2.28 1.56,4.2 3.48,4.2 1.8,0 3.24,-1.92 3.24,-4.2"
           id="path1012" />
        <path
           d="m 307.68,336.3204 c 0,-2.28 -1.44,-4.2 -3.24,-4.2 -1.92,0 -3.48,1.92 -3.48,4.2 0,2.4 1.56,4.44 3.48,4.44 1.8,0 3.24,-2.04 3.24,-4.44"
           id="path1014" />
        <path
           d="m 314.64,347.7204 c 0,-2.4 -1.44,-4.32 -3.24,-4.32 -1.92,0 -3.48,1.92 -3.48,4.32 0,2.4 1.56,4.32 3.48,4.32 1.8,0 3.24,-1.92 3.24,-4.32"
           id="path1016" />
        <path
           d="m 302.16,347.9604 c 0,-2.4 -1.56,-4.2 -3.48,-4.2 -1.92,0 -3.48,1.8 -3.48,4.2 0,2.4 1.56,4.2 3.48,4.2 1.92,0 3.48,-1.8 3.48,-4.2"
           id="path1018" />
        <path
           d="m 309.12,359.4804 c 0,-2.4 -1.56,-4.32 -3.48,-4.32 -1.92,0 -3.36,1.92 -3.36,4.32 0,2.28 1.44,4.2 3.36,4.2 1.92,0 3.48,-1.92 3.48,-4.2"
           id="path1020" />
        <path
           d="m 294.36,421.5204 c 0,-2.4 -1.44,-4.32 -3.36,-4.32 -1.92,0 -3.48,1.92 -3.48,4.32 0,2.4 1.56,4.2 3.48,4.2 1.92,0 3.36,-1.8 3.36,-4.2"
           id="path1022" />
        <path
           d="m 290.28,432.5604 c 0,-2.16 -1.44,-3.96 -3.36,-3.96 -1.8,0 -3.36,1.8 -3.36,3.96 0,2.16 1.56,3.96 3.36,3.96 1.92,0 3.36,-1.8 3.36,-3.96"
           id="path1024" />
        <path
           d="m 313.32,434.0004 c 0,-2.28 -1.56,-4.2 -3.36,-4.2 -1.92,0 -3.48,1.92 -3.48,4.2 0,2.4 1.56,4.44 3.48,4.44 1.8,0 3.36,-2.04 3.36,-4.44"
           id="path1026" />
      </g>
      <path
         d="m 302.88,451.5204 c 0,-2.4 -1.44,-4.32 -3.48,-4.32 -1.8,0 -3.36,1.92 -3.36,4.32 0,2.28 1.56,4.32 3.36,4.32 2.04,0 3.48,-2.04 3.48,-4.32"
         id="path1030" />
      <path
         d="m 301.92,431.0004 c 0,-2.16 -1.56,-3.84 -3.48,-3.84 -1.8,0 -3.36,1.68 -3.36,3.84 0,2.16 1.56,3.96 3.36,3.96 1.92,0 3.48,-1.8 3.48,-3.96"
         fill="#25bbe3"
         id="path1032" />
      <path
         d="m 268.92,404.7204 c -1.2,7.8 5.4,11.76 10.56,15.72 -0.36,-1.92 -1.32,-16.8 -1.44,-19.8 -2.64,-1.08 -8.16,0 -9.12,4.08"
         fill="#25bbe3"
         id="path1034" />
    </g>
  </g>
</svg>
