<?xml version="1.0" encoding="UTF-8" standalone="no"?>
<!-- Created with Inkscape (http://www.inkscape.org/) -->

<svg
   width="500"
   height="300"
   id="svg2"
   version="1.0"
   xmlns="http://www.w3.org/2000/svg"
   xmlns:svg="http://www.w3.org/2000/svg"
   xmlns:rdf="http://www.w3.org/1999/02/22-rdf-syntax-ns#"
   xmlns:cc="http://creativecommons.org/ns#"
   xmlns:dc="http://purl.org/dc/elements/1.1/">
  <defs
     id="defs4" />
  <metadata
     id="metadata7">
    <rdf:RDF>
      <cc:Work
         rdf:about="">
        <dc:format>image/svg+xml</dc:format>
        <dc:type
           rdf:resource="http://purl.org/dc/dcmitype/StillImage" />
      </cc:Work>
    </rdf:RDF>
  </metadata>
  <g
     id="layer1"
     transform="matrix(0.99408114,0,0,0.99408114,7.7849916e-5,8.5810933e-5)">
    <path
       id="rect2227"
       style="opacity:1;fill:#0762bc;stroke-width:1.4215"
       d="M 0.01315286,0.01449788 H 502.9902 V 150.90761 H 0.01315286 Z" />
    <path
       id="rect2239"
       style="opacity:1;fill:#e83629;stroke-width:1.97332"
       d="M 0.01315286,226.35416 H 502.99017 v 75.44655 H 0.01315286 Z" />
    <path
       style="fill:#000000;fill-rule:evenodd;stroke:none;stroke-width:0.921075px;stroke-linecap:butt;stroke-linejoin:miter;stroke-opacity:1"
       d="m 131.17407,87.828264 c 0,0 -15.56734,-0.337194 -21.52523,-5.057903 -5.95786,-4.720699 -7.87976,-10.790172 -7.87976,-10.790172 0,0 9.99386,6.912457 16.33611,8.261231 6.34225,1.348774 13.26109,-0.50579 13.26109,-0.50579 0,0 -9.03291,-0.842984 -14.22204,-5.395086 -5.18912,-4.552102 -5.3813,-6.406668 -5.3813,-6.406668 0,0 12.10792,4.046313 16.72048,4.72071 4.61256,0.674377 11.91577,0.168587 11.91577,0.168587 0,0 -2.49847,-1.685958 -3.45943,-2.528941 -0.96095,-0.842984 -1.34532,-1.685969 -1.34532,-1.685969 0,0 0.19219,1.348775 -0.76877,2.360346 -0.96095,1.01158 -0.96095,1.01158 -0.96095,1.01158 0,0 -0.19217,-1.685957 -0.96094,-2.528941 -0.76875,-0.842985 -1.72971,-1.685958 -1.72971,-1.685958 0,0 -1.34531,2.023152 -3.075,2.528942 -1.72972,0.50579 -2.69068,0.674377 -2.69068,0.674377 0,0 2.69068,-3.371916 1.92189,-5.900878 -0.76874,-2.528941 -0.96093,-2.697537 -0.96093,-2.697537 0,0 -21.71744,-9.947189 -23.44714,-9.104215 -1.72971,0.842993 -0.19219,2.866144 0.19217,4.383515 0.38441,1.51736 -2.11407,3.540522 -3.4594,3.540522 -1.345317,0 -1.345317,0 -1.345317,0 0,0 -0.96095,1.348774 -4.804745,1.011581 -3.843799,-0.337183 -6.534457,-2.697538 -6.534457,-2.697538 0,0 4.035982,-0.337205 5.573503,-1.517371 1.537521,-1.180177 1.537521,-1.180177 1.537521,-1.180177 0,0 -2.11409,-2.360355 -0.576567,-3.540532 1.537508,-1.180167 3.459412,-0.674377 2.498459,-1.854554 -0.960951,-1.180177 -10.186055,-4.214909 -14.029827,-3.371926 -3.843798,0.842984 -5.957888,1.854565 -7.879781,2.360345 -1.921904,0.505791 -12.492332,2.023161 -13.45327,3.034742 -0.960953,1.01157 -1.345338,4.552102 -4.996935,5.226488 -3.651611,0.674389 -6.150074,-2.697537 -6.150074,-2.697537 0,0 -2.882845,1.180167 -3.075032,2.866135 -0.192185,1.685968 0,3.540522 0,3.540522 0,0 -6.918825,-3.371926 -4.612549,-7.249651 2.306275,-3.877714 3.267228,-4.046302 3.267228,-4.046302 0,0 -0.576569,-1.685978 0.768755,-2.866145 1.345334,-1.180178 5.957874,-2.697548 7.111012,-3.371935 1.153137,-0.674376 3.843797,-2.023151 8.26415,-2.023151 4.420367,0 12.107948,-0.50579 14.029853,-1.348784 1.921892,-0.842974 1.921892,-1.01157 0.192186,-2.360345 -1.729706,-1.348772 -6.150073,-3.877717 -7.687582,-4.21491 -1.537522,-0.33719 -5.957876,-3.371931 -7.303199,-3.371931 -1.345336,0 -5.189133,-0.337188 -6.534456,-1.517364 C 52.568532,28.8195 51.991953,26.79634 52.18415,25.78476 c 0.192197,-1.011581 0.192197,-1.011581 0.192197,-1.011581 0,0 -1.537533,-1.011579 -4.035982,-1.011579 -2.498473,0 -5.957888,1.180175 -5.957888,1.180175 0,0 0.57657,-4.889296 7.303211,-5.900877 6.726641,-1.011571 5.573491,-0.842975 5.573491,-0.842975 0,0 2.882846,-0.842985 6.150073,0 3.26723,0.842975 6.72663,2.866135 8.071954,4.552106 1.345337,1.68596 6.150074,7.081051 8.648546,8.935608 2.498462,1.854564 6.342247,3.877716 7.879768,4.046322 1.537521,0.168594 2.498461,0.168594 2.498461,0.168594 0,0 1.153138,-3.540527 0.768768,-6.238078 -0.384386,-2.69754 -1.537522,-5.395081 -1.537522,-5.395081 0,0 -5.189121,-2.528945 -4.035983,-5.226496 1.153137,-2.697541 1.153137,-2.697541 1.153137,-2.697541 0,0 -2.498461,-1.854555 -3.651598,-1.854555 -1.153139,0 -3.459426,0.505785 -3.459426,0.505785 0,0 0.960952,-3.877715 7.111024,-4.046311 6.150062,-0.168604 6.726645,2.023151 6.726645,2.023151 0,0 1.537508,-0.67438 3.4594,0.505794 1.921904,1.180176 4.420376,3.540526 4.035986,11.295958 -0.38438,7.755442 0,12.813335 2.306278,15.173687 2.30629,2.360354 5.76569,4.046321 7.30319,4.720698 1.53754,0.674387 18.06584,7.586845 20.37212,8.092635 2.30628,0.50578 9.03291,-0.674387 16.7205,2.360344 7.68758,3.034741 12.30012,6.069473 14.22204,7.418247 1.92189,1.348775 5.1891,2.697549 5.1891,2.697549 0,0 0.76877,-1.685968 3.26723,-2.023162 2.49846,-0.337183 10.76262,-2.191757 12.87671,-3.371924 2.11407,-1.180179 3.2672,-1.685969 3.2672,-1.685969 0,0 -0.96092,-3.709128 -0.96092,-5.226488 0,-1.517371 0,-1.517371 0,-1.517371 0,0 -2.88287,-0.50579 -4.99695,-2.023162 -2.11407,-1.517361 -2.11407,-1.517361 -2.11407,-1.517361 0,0 -8.07197,0.842985 -11.3392,-1.51737 -3.26721,-2.360345 -5.95789,-6.069473 -5.95789,-6.069473 0,0 2.88285,-0.168597 5.18915,0.337193 2.30627,0.50579 2.30627,0.50579 2.30627,0.50579 0,0 -3.45941,-3.203338 -7.49542,-3.203338 -4.03595,0 -4.61253,0.3372 -9.03291,2.697548 -4.42034,2.360355 -9.99384,5.395086 -15.75953,4.214909 -5.7657,-1.180178 -9.99387,-5.395087 -8.26415,-10.28438 1.72969,-4.889306 3.4594,-10.621577 1.92191,-12.981927 -1.53753,-2.360351 -5.18914,-3.371931 -8.07199,-3.540527 -2.88284,-0.168604 -1.92189,0.168596 -1.92189,0.168596 0,0 2.30627,-4.214916 8.26416,-5.226496 5.95787,-1.01158 11.14698,3.203336 11.14698,7.586846 0,4.383502 -3.65161,11.801753 -2.11406,13.656309 1.53749,1.854566 4.99692,2.528947 8.64853,1.854566 3.65159,-0.674389 9.22509,-3.371932 17.10486,-3.203336 7.87978,0.168594 14.99079,2.866147 16.33613,3.877717 1.34533,1.01158 3.45939,3.54053 3.45939,3.54053 0,0 1.92191,-0.168597 2.69068,-0.674387 0.76875,-0.505791 0.76875,-0.505791 0.76875,-0.505791 0,0 -7.3032,-5.22649 -9.03291,-5.56368 -1.72972,-0.337199 -7.30319,-0.505795 -10.57044,-2.023161 -3.26722,-1.517364 -6.15006,-4.214915 -10.18604,-3.877716 -4.03597,0.337191 -7.49542,3.371931 -7.49542,3.371931 0,0 -0.38436,-7.081051 5.18916,-11.127372 5.57348,-4.046311 10.9548,-2.191755 12.30013,-1.68596 1.34532,0.505785 1.34532,0.505785 1.34532,0.505785 0,0 8.45633,-1.34877 12.30013,-2.191755 3.84379,-0.842975 12.30014,-0.842975 15.95172,0.674389 3.65161,1.517366 7.49543,4.889297 11.7236,3.540527 4.22817,-1.348772 10.95479,-7.586848 16.72048,-7.586848 5.7657,0 12.6845,-2.866134 12.6845,-2.866134 0,0 -0.96093,4.552106 -3.65159,7.418241 -2.69066,2.866145 -4.42035,3.877726 -4.42035,3.877726 0,0 2.88284,0 4.99691,-0.505796 2.1141,-0.505785 7.4954,-3.203335 7.4954,-3.203335 0,0 -4.61254,10.790182 -10.95479,14.162104 -6.34227,3.371932 -13.83764,0.505794 -13.83764,0.505794 0,0 5.95787,7.249648 6.34224,11.29596 0.38436,4.046321 0.38436,4.046321 0.38436,4.046321 0,0 -2.88284,-0.5058 -4.22816,-1.348774 -1.34531,-0.842984 -1.34531,-0.842984 -1.34531,-0.842984 0,0 5.18911,5.226491 3.84377,9.272812 -1.34531,4.046312 -3.26721,4.889297 -2.11407,8.092625 1.15312,3.203328 4.03598,5.563682 4.03598,5.563682 0,0 -1.72971,0.168607 -3.84381,-0.337193 -2.11409,-0.50578 -4.42036,-1.685958 -4.42036,-1.685958 0,0 0,1.517361 -0.19218,2.69754 -0.19219,1.180176 -0.19219,1.180176 -0.19219,1.180176 0,0 -1.72971,-1.854565 -2.69065,-2.528952 -0.96096,-0.674386 -0.96096,-0.674386 -0.96096,-0.674386 0,0 1.53752,4.889295 7.11103,6.912456 5.5735,2.023161 13.06888,3.709119 21.33304,-3.540521 8.26416,-7.24965 2.49847,-12.813334 1.53753,-13.319124 -0.96096,-0.50579 -12.49234,-1.685968 -13.0689,-8.261222 -0.57657,-6.575272 2.11408,-15.342282 8.64853,-19.894388 6.53444,-4.552107 14.6064,-10.284388 24.02369,-12.981928 9.41729,-2.697542 14.60641,-1.854566 19.21896,-4.214916 4.61256,-2.3603512 4.61256,-2.3603512 4.61256,-2.3603512 0,0 0,1.3487802 -0.38437,2.3603512 -0.38438,1.01158 -0.57659,1.34878 -0.57659,1.34878 0,0 2.69066,-1.180175 3.8438,-2.191755 1.15315,-1.011581 2.88285,-3.2033366 2.88285,-3.2033366 0,0 0.96094,4.3835116 0,6.5752666 -0.96092,2.191746 -1.15313,2.528945 -1.15313,2.528945 0,0 15.37516,-0.67439 25.36902,-2.528945 9.99386,-1.854565 20.94868,-7.4182519 20.94868,-7.4182519 0,0 -0.96096,4.3835109 -3.45944,7.2496469 -2.49844,2.866145 -3.65157,3.034741 -3.65157,3.034741 0,0 4.42035,-0.337191 6.91879,-1.517366 2.49849,-1.180175 6.34228,-2.866145 6.34228,-2.866145 0,0 0.19219,2.528945 -0.57657,3.709121 -0.76876,1.180175 -1.34531,1.854564 -1.34531,1.854564 0,0 11.33917,1.01158 25.36903,-1.01158 14.0298,-2.02316 22.48614,-6.912456 24.0237,-7.9240362 1.53749,-1.0115702 4.22815,-3.709121 4.22815,-3.709121 0,0 1.53753,3.2033358 0.19219,6.2380772 -1.34531,3.03473 -1.53751,3.03473 -1.53751,3.03473 0,0 4.42036,-1.685961 6.15007,-2.528945 1.7297,-0.842985 3.65159,-2.528946 3.65159,-2.528946 0,0 0.96096,9.272806 -4.80473,14.499293 -5.76569,5.226496 -24.60026,6.406671 -29.78939,6.912456 -5.18912,0.505787 -36.32384,2.023161 -36.32384,2.023161 0,0 14.9908,2.023152 28.82844,1.685963 13.83765,-0.337193 23.44713,-3.877718 23.44713,-3.877718 0,0 -0.57655,8.261226 -9.60948,10.958774 -9.0329,2.697538 -22.67836,2.360344 -25.36903,2.360344 -2.69066,0 -3.6516,0 -3.6516,0 0,0 4.61255,2.023162 8.84072,2.697538 4.22817,0.674397 14.02986,1.854565 14.02986,1.854565 0,0 -7.87979,6.406666 -16.14393,6.23807 -8.26417,-0.168597 -14.02986,-3.034732 -20.94867,-2.697538 -6.91884,0.337193 -7.11102,0.337193 -7.11102,0.337193 0,0 11.33918,1.348764 14.60641,3.034731 3.26722,1.685968 6.15006,2.360355 9.22511,3.034731 3.07503,0.674399 4.99692,0.674399 4.99692,0.674399 0,0 -3.65161,5.900876 -15.95176,5.900876 -12.30013,0 -15.75951,-0.674398 -17.48924,-0.50579 -1.7297,0.168596 -1.7297,0.168596 -1.7297,0.168596 0,0 9.60948,2.697538 17.29706,3.709119 7.68759,1.011581 40.93637,9.609994 55.92719,15.342285 14.9908,5.73228 30.36596,16.691051 44.78019,12.47613 14.41422,-4.214909 15.18295,-12.813324 12.30012,-17.028242 -2.88284,-4.21491 -9.80165,-6.743861 -17.10486,-6.406657 -7.30321,0.337183 -29.9816,6.912447 -38.24574,7.24964 -8.26416,0.337194 -26.52218,-1.517371 -29.02064,-10.115785 -2.49846,-8.598425 -0.19221,-16.353865 9.0329,-21.243162 9.22511,-4.889296 17.48927,-7.418237 31.5191,-5.73228 14.02986,1.685968 24.60028,4.889296 25.75342,1.180178 1.15312,-3.709119 -3.07505,-7.249647 -6.34225,-9.94719 -3.26724,-2.69754 -4.80475,-8.261227 -0.96096,-11.970347 3.8438,-3.709121 5.95791,-4.720701 7.87979,-4.720701 1.92189,0 2.88284,0.337189 2.88284,0.337189 0,0 -1.34533,0.505786 -1.53753,1.348771 -0.19219,0.842986 -0.19219,0.842986 -0.19219,0.842986 0,0 2.88286,-3.371931 6.72664,-3.709122 3.84379,-0.337199 14.41423,0.842976 16.14392,1.685961 1.72973,0.842984 1.72973,0.842984 1.72973,0.842984 0,0 -5.95789,0.505787 -9.03293,6.575257 -3.07502,6.069482 2.69065,16.353858 2.69065,16.353858 0,0 -0.38439,-1.854555 0.76878,-4.214903 1.15313,-2.360351 4.80474,-3.203336 4.80474,-3.203336 0,0 -0.57658,2.866136 0.96093,5.900878 1.53751,3.034741 4.42035,8.598414 0.1922,13.99351 -4.22818,5.395077 -13.45328,5.73228 -22.67838,4.552103 -9.2251,-1.180178 -37.09261,-8.598424 -43.24267,-7.586844 -6.15006,1.011581 -16.52828,6.069473 -15.37517,12.813334 1.15315,6.74386 4.80476,7.75544 14.22204,8.092624 9.41729,0.337193 30.55814,-6.912457 39.97544,-7.249641 9.41729,-0.337193 20.17989,2.528941 26.32998,10.958769 6.15004,8.429818 -0.38437,20.905958 -7.11103,24.783679 -6.72662,3.87772 -21.14085,7.58685 -34.7863,3.54053 -13.64546,-4.04632 -29.9816,-14.162111 -35.93946,-16.016665 -5.9579,-1.854565 -13.26109,-2.360355 -13.26109,-2.360355 0,0 2.30628,8.935608 11.72357,12.476141 9.41727,3.540509 13.26109,3.203339 15.18298,3.203339 1.92192,0 5.3813,1.01157 5.95787,3.54052 0.57657,2.52894 4.99692,8.76701 3.45941,10.45299 -1.5375,1.68596 -4.99692,2.36034 -7.30319,7.24964 -2.3063,4.88929 -2.49847,5.22649 -4.22818,5.73228 -1.72972,0.50579 -1.72972,0.50579 -1.72972,0.50579 0,0 0,3.87772 -2.11407,5.05788 -2.1141,1.18018 -2.88285,2.19175 -5.57349,1.85456 -2.69065,-0.33717 -5.38133,-0.33717 -6.72665,0.1686 -1.34534,0.5058 -2.30627,1.18019 -3.45943,1.51738 -1.15313,0.33719 -2.88282,-0.33719 -2.88282,-0.33719 0,0 -0.57658,0.50579 -0.76877,1.34876 -0.19219,0.84298 0,1.34877 0,1.34877 0,0 -4.61256,-1.51736 -4.61256,-3.03474 0,-1.51735 0.19219,-2.52894 0.19219,-2.52894 0,0 -2.30627,0.1686 -3.2672,-0.16859 -0.96097,-0.33719 -1.34532,-0.67439 -1.34532,-0.67439 0,0 -1.92192,0 -2.88287,0.50578 -0.96095,0.5058 -0.57656,2.36036 -0.57656,2.36036 0,0 -3.26723,-2.86614 -2.30628,-5.2265 0.96096,-2.36033 2.1141,-2.86613 2.1141,-2.86613 0,0 0.19218,-1.34877 1.34533,-2.02315 1.15314,-0.67439 0.96093,-0.5058 1.72968,-1.18019 0.76876,-0.67439 0.96095,-0.84298 0.96095,-0.84298 l -1.15313,-0.33718 -0.57657,-0.84298 c 0,0 -2.30626,0.84298 -2.69064,1.68596 -0.38439,0.84298 -0.38439,1.18018 -0.38439,1.18018 0,0 -3.65161,-3.03474 -0.96095,-5.39509 2.69067,-2.36035 3.45941,-2.19176 3.45941,-2.19176 0,0 0.38438,-2.36036 3.26724,-2.36036 2.88283,0 4.42034,0.5058 7.11101,2.86615 2.69066,2.36035 6.15006,6.40666 8.45636,6.57526 2.30626,0.1686 3.26722,-0.67438 3.45939,-1.85456 0.19221,-1.18017 0.38439,-2.69754 1.92189,-3.37193 1.5375,-0.67439 2.49846,-1.85456 2.11409,-3.37193 -0.38439,-1.51737 -4.03598,-4.04632 -7.87977,-3.8777 -3.84381,0.16858 -9.4173,1.51735 -15.95174,-0.16862 -6.53443,-1.68596 -21.71745,-10.45297 -21.71745,-10.45297 0,0 -18.45018,1.18017 -25.94557,5.22648 -7.49539,4.04631 -8.45634,6.57527 -9.60949,8.59842 -1.15313,2.02317 -2.30626,6.74387 -2.30626,6.74387 0,0 -8.84073,-1.51737 -15.37519,0 -6.53444,1.51735 -10.18605,4.88929 -12.87668,7.41823 -2.69065,2.52896 -6.91884,7.24966 -11.53139,8.42982 -4.61254,1.18018 -10.37826,0.16861 -14.02984,1.51738 -3.65161,1.34877 -5.9579,4.7207 -8.84074,4.7207 -2.88285,0 -4.80472,-2.52894 -4.80472,-2.52894 0,0 -3.26724,-0.33721 -4.42039,0.33718 -1.15314,0.67439 -1.5375,1.85457 -1.5375,1.85457 0,0 -2.30627,-3.03474 1.15314,-5.2265 3.45941,-2.19174 3.84381,-2.19174 3.84381,-2.19174 0,0 0.19217,-1.0116 0.57654,-1.68596 0.3844,-0.67439 0.57658,-1.18019 0.57658,-1.18019 0,0 -2.49846,1.51736 -3.07503,0.5058 -0.57656,-1.01158 -0.57656,-1.01158 -0.57656,-1.01158 0,0 -4.42037,0.67438 -4.99695,1.51737 -0.57656,0.84296 -1.34531,1.85456 -1.34531,1.85456 0,0 -0.96097,-4.38351 1.72968,-6.57526 2.69065,-2.19176 4.61258,-3.03475 4.61258,-3.03475 0,0 -0.19222,-3.03473 3.07501,-3.03473 3.26722,0 2.30627,2.86614 4.42037,3.37193 2.11409,0.50579 2.30629,0.50579 2.30629,0.50579 0,0 -0.76876,-1.01158 0.19216,-2.19175 0.96097,-1.18019 1.34533,-1.18019 1.34533,-1.18019 0,0 -2.30625,-1.85456 -4.42034,-2.02314 -2.1141,-0.1686 -2.1141,-0.1686 -2.1141,-0.1686 0,0 1.34533,-1.68597 5.18911,-1.85457 3.84381,-0.16859 6.15009,0.5058 6.15009,0.5058 0,0 0.96095,-1.34878 2.69065,-1.34878 1.7297,0 6.72662,3.03473 9.03292,2.02315 2.30626,-1.01157 10.76262,-6.57525 14.41422,-7.92403 3.6516,-1.34875 3.84376,-1.34875 3.84376,-1.34875 0,0 1.92192,-9.94721 4.80476,-13.824929 2.88286,-3.877713 2.88286,-3.877713 2.88286,-3.877713 0,0 -14.79861,6.238072 -21.90964,9.441402 -7.11101,3.20333 -17.87363,9.94719 -24.60027,11.97034 -6.72662,2.02316 -16.1439,1.18018 -17.87363,0.84298 -1.72969,-0.33718 -1.72969,-0.33718 -1.72969,-0.33718 0,0 -3.07505,0.33718 -6.15008,0.16859 -3.07502,-0.16859 -3.45938,-1.18018 -3.45938,-1.18018 0,0 -4.99695,0 -6.72666,-0.84298 -1.72971,-0.84298 -2.88286,-2.36033 -2.88286,-2.36033 0,0 -2.69063,0.33717 -4.22817,-0.16862 -1.53751,-0.50577 -2.11408,-2.19175 -2.88285,-2.02315 -0.76876,0.16859 -3.6516,10.45298 -10.76261,14.66789 -7.11101,4.21493 -12.49231,3.20333 -12.49231,3.20333 l 0.96094,-1.68596 c 0,0 -7.87978,6.06947 -15.56737,6.91246 -7.68759,0.84299 -10.37823,0.33719 -10.37823,0.33719 0,0 8.84072,-7.08104 10.37823,-9.10422 1.53753,-2.02314 1.53753,-3.20333 1.53753,-3.20333 0,0 -3.45941,2.86615 -4.99694,4.04633 -1.53752,1.18018 -1.53752,1.18018 -1.53752,1.18018 0,0 0.96096,-2.86616 0.57659,-3.87774 -0.3844,-1.01158 -0.3844,-1.01158 -0.3844,-1.01158 0,0 -0.96092,5.56369 -4.42034,7.75545 -3.45943,2.19176 -3.45943,2.19176 -3.45943,2.19176 0,0 1.7297,-12.47615 -0.76877,-14.4993 -2.49845,-2.02316 -10.7626,-7.58684 -22.48617,-5.0579 -11.72356,2.52895 -16.143929,2.69754 -23.447129,8.59842 -7.303221,5.90089 -8.264162,8.76702 -9.225103,10.45298 -0.960951,1.68596 -1.345335,2.86614 -3.459425,3.70913 -2.114077,0.84296 -6.150061,0.1686 -6.150061,0.1686 0,0 -3.843797,2.86613 -5.189121,3.54051 -1.345322,0.6744 -4.035983,0.6744 -4.035983,0.6744 0,0 0.576569,-4.72071 1.345325,-6.06949 0.768766,-1.34876 1.537522,-2.19175 1.537522,-2.19175 0,0 -1.921894,-4.38349 -0.192186,-5.22648 1.729693,-0.84299 5.765677,-1.01159 6.726629,-1.51737 0.960952,-0.5058 2.498472,-1.85456 3.843798,-2.02316 1.345324,-0.1686 6.342258,-2.19175 7.111012,-3.03474 0.768767,-0.84298 2.11409,-3.87771 -0.576569,-4.5521 -2.690647,-0.67439 -14.222026,-1.01158 -18.642392,0.67439 -4.420355,1.68595 -7.879768,4.04631 -10.378241,3.37191 -2.498462,-0.67438 -3.07503,-2.69753 -3.07503,-2.69753 0,0 -4.420355,1.01157 -5.381306,2.02315 -0.960953,1.01158 -0.768767,2.52895 -0.768767,2.52895 0,0 -2.114078,-5.22648 -0.192186,-7.75544 1.921904,-2.52894 5.381307,-4.21491 5.381307,-4.21491 0,0 -1.537511,-4.88929 2.498472,-5.05789 4.035983,-0.16859 15.182966,2.36036 17.297058,2.52894 2.114089,0.1686 9.993857,0.67441 10.954809,-0.67438 0.960953,-1.34877 -4.61254,-5.22649 -7.111013,-6.743859 -2.498461,-1.517368 -5.381307,-3.709116 -7.687581,-4.383513 -2.306277,-0.674378 -5.573504,-1.685958 -5.765691,-3.709119 -0.192186,-2.023161 0.192187,-2.191757 0.192187,-2.191757 0,0 -2.11409,-2.697539 -5.189121,-2.697539 -3.075031,0 -4.035982,0.505791 -4.035982,0.505791 0,0 0.768766,-4.552113 4.612551,-4.889296 3.843797,-0.337194 8.071964,0.50579 8.071964,0.50579 0,0 2.114092,-2.866145 5.573505,-1.180177 3.459414,1.685967 6.342246,3.371924 10.378229,9.610005 4.035983,6.238059 9.801685,13.150524 12.876716,13.993504 3.075031,0.84297 6.534443,0.33719 7.495386,-0.1686 0.960948,-0.50579 1.729707,-1.18018 0.768759,-1.68596 -0.96095,-0.50579 -1.729702,-2.02317 -0.96095,-2.52895 0.768771,-0.5058 1.34533,-0.84299 1.34533,-0.84299 0,0 -0.960949,-2.528945 -1.921896,-2.866139 -0.960953,-0.337192 -2.11409,-0.674386 -2.11409,-0.674386 0,0 1.345335,-2.866135 6.150074,-2.191757 4.80474,0.674396 5.38132,5.2265 5.38132,5.2265 0,0 1.34533,1.011582 0.57656,2.191752 -0.76875,1.18018 -1.92189,3.20333 -0.57656,3.87772 1.34533,0.67438 3.6516,-0.67439 5.3813,-1.18017 1.72972,-0.5058 8.64852,-3.03475 12.30014,-3.03475 3.65159,0 9.2251,-0.16859 10.7626,-1.517357 1.53754,-1.348776 2.69067,-2.866138 4.03601,-3.034744 1.34532,-0.168598 3.07502,-0.842974 2.11406,-2.191749 -0.96093,-1.348783 -6.15007,-3.203337 -8.84071,-2.528951 -2.69066,0.674388 -10.76263,1.180168 -17.29707,-1.01157 -6.53444,-2.191757 -7.4954,-4.552113 -7.4954,-4.552113 0,0 19.60337,1.685968 23.63932,1.180178 z"
       id="path2243" />
    <path
       style="fill:#ead01a;fill-opacity:1;fill-rule:evenodd;stroke:none;stroke-width:0.921075px;stroke-linecap:butt;stroke-linejoin:miter;stroke-opacity:1"
       d="m 149.5591,27.447032 c 0,0 1.22309,-4.768626 5.02824,-6.795289 3.80514,-2.026673 7.74622,-2.14589 8.83341,-1.072939 1.08718,1.072939 2.98977,5.245491 6.25133,6.199214 3.26157,0.953724 7.74623,1.192157 7.74623,1.192157 0,0 10.87189,8.941179 12.63857,12.159998 1.76668,3.218833 2.03846,4.410986 2.03846,4.410986 0,0 0.5436,-1.907451 2.44618,-1.788236 1.90259,0.119216 4.75645,1.31137 4.89235,4.053327 0.1359,2.741968 -1.49489,7.152954 -1.49489,7.152954 0,0 -1.76667,-1.549803 -3.12567,-2.503545 -1.35899,-0.95372 -2.03848,-1.788225 -2.58208,-3.457244 -0.54358,-1.66902 -0.54358,-1.66902 -0.54358,-1.66902 0,0 -2.31026,5.245481 -5.97954,5.00706 -3.66926,-0.238434 -6.79493,-2.02667 -7.61032,-3.218824 -0.81538,-1.192164 -0.81538,-1.430597 -0.81538,-1.430597 0,0 -3.39747,1.669029 -8.28983,0.357649 -4.89233,-1.311369 -6.52313,-4.410975 -6.52313,-4.410975 0,0 7.33854,1.430585 9.6488,1.31137 2.31029,-0.119217 5.97954,-1.788237 7.74621,-1.66901 1.76671,0.119216 4.34878,0.119216 5.57186,-1.072947 1.2231,-1.192165 1.2231,-1.192165 1.2231,-1.192165 0,0 -7.06674,-5.960782 -11.00779,-6.795288 -3.94108,-0.834518 -7.06675,-0.834518 -13.31807,-3.695687 -6.25134,-2.861179 -10.3283,-2.861179 -12.77446,-1.072949 z"
       id="path2245" />
    <path
       style="fill:#000000;fill-rule:evenodd;stroke:none;stroke-width:0.921075px;stroke-linecap:butt;stroke-linejoin:miter;stroke-opacity:1"
       d="m 160.29508,21.724682 c 0,0 0.6795,-0.715288 1.49488,-0.715288 0.8154,0 1.35899,1.669012 0.67949,2.861168 -0.67949,1.192156 -0.95129,1.311374 -0.95129,1.311374 0,0 0,-3.457254 -1.22308,-3.457254 z"
       id="path2247" />
    <path
       style="fill:#ead01a;fill-opacity:1;fill-rule:evenodd;stroke:none;stroke-width:0.921075px;stroke-linecap:butt;stroke-linejoin:miter;stroke-opacity:1"
       d="m 166.54641,20.294093 c 0,0 1.90258,3.576469 5.30005,4.172553 3.39747,0.596072 8.69751,0.119216 11.82318,-0.7153 3.12567,-0.834506 6.93082,-1.311374 9.92059,-0.357641 2.98977,0.953724 5.43594,3.21882 5.43594,3.21882 0,0 -1.22309,0.35765 -2.85386,0.119217 -1.63079,-0.238434 -2.44619,-1.192157 -2.98976,-1.311374 -0.54361,-0.119215 -0.54361,-0.119215 -0.54361,-0.119215 0,0 2.44616,2.980396 0.54361,5.007058 -1.9026,2.026673 -6.79494,1.311374 -8.28982,-0.119217 -1.49491,-1.430589 -1.22309,-3.814903 -0.81541,-4.530192 0.40771,-0.7153 0.40771,-0.7153 0.40771,-0.7153 0,0 -2.03847,1.192158 -2.85386,1.192158 -0.8154,0 -1.76671,0.238431 -1.76671,0.238431 0,0 8.42574,7.152949 10.19242,9.65648 1.76668,2.50353 2.71795,4.530188 2.71795,4.530188 0,0 2.44618,-1.430586 4.21289,-0.357638 1.76668,1.072947 4.48462,3.218822 4.48462,3.218822 0,0 0.27182,-4.29177 -0.67948,-5.841566 -0.9513,-1.549806 -2.85388,-3.338047 -2.85388,-3.338047 0,0 3.80518,-0.476857 5.70775,0.476867 1.90258,0.953725 3.26156,1.788231 3.26156,1.788231 0,0 0.1359,-3.695688 -0.8154,-4.649412 -0.95127,-0.953722 -3.39746,-2.741961 -3.39746,-2.741961 0,0 4.62056,-2.384313 8.42572,-2.384313 3.80515,0 11.00779,0.953723 15.08473,-1.311374 4.07696,-2.265096 4.21288,-2.622745 4.21288,-2.622745 0,0 -2.71799,0.357649 -6.11544,0.357649 -3.39748,0 -6.79492,0.596074 -9.92059,1.43059 -3.12567,0.834506 -10.1924,0 -10.1924,0 0,0 0.13589,-0.7153 0.95129,-0.834516 0.81538,-0.119216 5.02824,-0.119216 10.19237,-1.07294 5.16416,-0.953724 12.23089,-1.669012 14.67707,-5.364708 2.44619,-3.695685 2.44619,-3.814902 2.44619,-3.814902 0,0 -4.48466,1.072948 -7.47445,1.311372 -2.98975,0.238433 -6.79493,0.834517 -10.32829,2.980395 -3.53336,2.14588 -9.51289,5.603142 -12.50268,4.887843 -2.98976,-0.71529 -10.19239,-5.722349 -17.12321,-5.245491 -6.93083,0.476865 -18.34631,2.741962 -18.48221,2.861178 z"
       id="path2249" />
    <path
       style="fill:#ead01a;fill-opacity:1;fill-rule:evenodd;stroke:none;stroke-width:0.921075px;stroke-linecap:butt;stroke-linejoin:miter;stroke-opacity:1"
       d="m 185.30042,28.519981 c 0,0 -0.54361,-3.457263 1.359,-4.053335 1.90257,-0.596084 3.66924,-0.238434 4.48463,0.834507 0.81539,1.072938 1.9026,3.218828 0.95129,4.291768 -0.95129,1.07294 -3.26157,1.07294 -4.48465,0.596073 -1.22308,-0.476858 -1.49487,-0.238432 -2.31027,-1.669013 z"
       id="path2251" />
    <path
       style="fill:#000000;fill-rule:evenodd;stroke:none;stroke-width:0.921075px;stroke-linecap:butt;stroke-linejoin:miter;stroke-opacity:1"
       d="m 187.00517,27.217832 c 0,0 0.72072,-0.800838 1.68165,-0.505795 0.96095,0.295044 1.44143,1.47522 1.15313,2.02316 -0.28827,0.547942 -1.58556,1.138029 -2.64261,0.46364 -1.05701,-0.67438 -0.14411,-1.981005 -0.19217,-1.981005 z"
       id="path2253" />
    <path
       style="fill:#e83629;fill-opacity:1;fill-rule:evenodd;stroke:none;stroke-width:0.921075px;stroke-linecap:butt;stroke-linejoin:miter;stroke-opacity:1"
       d="m 121.08413,16.933445 c 0,0 5.95788,-4.046311 9.70557,-2.276048 3.7477,1.770263 5.57349,5.816575 4.80474,9.104203 -0.76877,3.287637 -4.51646,10.452982 -0.28827,12.223247 4.22817,1.770262 6.34223,1.938857 14.12592,-0.08429 7.78368,-2.023162 13.26108,-2.781844 19.41115,-0.842985 6.15007,1.938859 9.60949,4.636397 9.60949,4.636397 0,0 -4.22818,1.517381 -6.43834,1.601675 -2.21019,0.08429 -2.69066,0.08429 -2.69066,0.08429 0,0 -4.99695,-4.804999 -9.51339,-4.720696 -4.51645,0.08429 -7.97587,1.180175 -11.81967,3.28763 -3.84382,2.107454 -7.68759,4.383505 -11.81966,3.877715 -4.13208,-0.50578 -9.03289,-3.877715 -8.84073,-6.743853 0.19219,-2.866146 3.07504,-8.851316 2.78676,-12.813334 -0.28828,-3.962018 -2.78676,-7.249647 -9.03291,-7.333949 z"
       id="path2255" />
    <path
       style="fill:#ead01a;fill-opacity:1;fill-rule:evenodd;stroke:none;stroke-width:0.921075px;stroke-linecap:butt;stroke-linejoin:miter;stroke-opacity:1"
       d="m 187.77394,51.495719 c 0,0 0.76874,2.107463 1.4414,2.697547 0.67267,0.590094 1.44143,3.034731 1.44143,3.034731 0,0 2.69065,-1.601664 3.17112,-3.877715 0.48049,-2.276041 -2.88281,-3.793422 -2.88281,-3.793422 0,0 -1.82582,1.433078 -3.17114,1.938859 z"
       id="path2257" />
    <path
       style="fill:#ead01a;fill-opacity:1;fill-rule:evenodd;stroke:none;stroke-width:0.921075px;stroke-linecap:butt;stroke-linejoin:miter;stroke-opacity:1"
       d="m 184.98716,51.917215 c 0,0 0.19219,4.299202 0.86487,5.900876 0.67266,1.601665 0,6.322364 -0.57657,6.99676 -0.57656,0.674378 -1.24922,1.011581 -1.24922,1.011581 0,0 3.3633,0.25288 5.95788,-2.191757 2.59456,-2.444659 3.5555,-4.299212 3.5555,-4.299212 0,0 0.96094,3.709118 -0.0961,6.069472 -1.05707,2.360355 -3.36333,4.636397 -3.36333,4.636397 0,0 6.43836,-0.25289 8.45635,-3.45622 2.018,-3.203337 2.88284,-6.069472 2.88284,-6.069472 0,0 1.44145,2.02315 1.82581,3.456217 0.38437,1.433078 0.57658,3.371935 0.57658,3.371935 0,0 4.90082,-2.950437 5.6696,-6.743859 0.76874,-3.793422 -0.0962,-12.22325 -0.0962,-12.22325 0,0 2.59458,1.685978 3.36331,4.720709 0.76876,3.034731 0.48048,9.609995 1.72972,11.211659 1.24922,1.601665 3.93987,2.613245 3.93987,2.613245 0,0 -3.26721,-3.962019 -2.30625,-7.24964 0.96094,-3.287633 3.36331,-6.23807 2.01797,-8.598415 -1.34532,-2.360354 -4.70864,-4.973599 -4.80473,-6.23808 -0.0961,-1.26447 0.0961,-3.119035 0.0961,-3.119035 0,0 3.26724,3.119035 4.90085,3.540532 1.6336,0.421486 1.6336,0.421486 1.6336,0.421486 0,0 -0.48046,-3.119034 -1.53752,-5.647975 -1.05704,-2.528948 -4.61254,-6.490968 -5.57349,-8.429826 -0.96096,-1.938868 -0.96096,-1.938868 -0.96096,-1.938868 0,0 6.15007,3.034741 9.99387,2.950439 3.8438,-0.08429 8.64854,-2.528946 11.81967,-6.99675 3.17113,-4.467803 3.17113,-4.467803 3.17113,-4.467803 0,0 -4.03599,1.264468 -5.18913,2.191755 -1.15313,0.927278 -2.69066,1.938859 -2.69066,1.938859 0,0 -0.19217,0.168594 1.24923,0 1.44143,-0.168597 1.53755,-0.168597 1.53755,-0.168597 0,0 -1.05707,1.601659 -2.88288,1.938859 -1.82578,0.33719 -4.51645,0.33719 -5.76567,0.590087 -1.24924,0.252888 -1.8258,0.927279 -1.8258,0.927279 0,0 1.15313,0.505785 3.17113,0.421491 2.01799,-0.0843 2.21017,0.252897 2.21017,0.252897 0,0 0.28828,0.421484 -0.0961,0.674383 -0.38439,0.252897 -5.47743,0.252897 -6.82272,-0.252899 -1.34535,-0.505784 -2.40239,-1.34877 -2.40239,-1.34877 0,0 -6.82272,-0.927278 -9.22509,0 -2.40238,0.927286 -2.40238,0.927286 -2.40238,0.927286 0,0 2.30628,1.011573 2.97894,4.29921 0.67267,3.28763 -0.28829,6.575261 -0.28829,6.575261 0,0 -2.21017,-2.360353 -3.93989,-3.203329 -1.72969,-0.842985 -1.92188,-0.842985 -1.92188,-0.842985 0,0 1.53751,5.310784 1.34533,7.755433 -0.1922,2.444647 -0.48047,3.371935 -0.48047,3.371935 0,0 -0.86486,-1.180178 -1.44144,-1.348774 -0.57657,-0.168598 -0.57657,-0.168598 -0.57657,-0.168598 0,0 -0.76876,7.586835 -2.40236,9.694299 -1.63361,2.107454 -2.49847,2.697538 -2.49847,2.697538 0,0 -0.28827,-1.938858 -0.48048,-2.528941 -0.19218,-0.590084 -0.67266,-1.095884 -0.67266,-1.095884 0,0 -3.84379,5.647987 -5.28522,6.406678 -1.44141,0.75868 -1.44141,0.75868 -1.44141,0.75868 0,0 0.67265,-5.142197 -0.67265,-6.575264 -1.34532,-1.433068 -3.07504,-2.950438 -2.97897,-3.119035 z"
       id="path2259" />
    <path
       style="fill:#ead01a;fill-opacity:1;fill-rule:evenodd;stroke:none;stroke-width:0.921075px;stroke-linecap:butt;stroke-linejoin:miter;stroke-opacity:1"
       d="m 212.0859,67.51239 c 0,0 -2.11407,-1.854565 -2.30627,-2.866135 -0.19218,-1.01158 1.24924,-4.130615 1.24924,-4.130615 0,0 1.7297,3.709119 1.05703,6.99675 z"
       id="path2261" />
    <path
       style="fill:#ead01a;fill-opacity:1;fill-rule:evenodd;stroke:none;stroke-width:0.921075px;stroke-linecap:butt;stroke-linejoin:miter;stroke-opacity:1"
       d="m 81.589154,13.140021 c 0,0 2.017992,-1.180174 3.843797,-1.180174 1.825805,0 4.612551,1.34878 4.612551,1.34878 0,0 -0.864854,1.601658 -2.210189,2.191745 -1.345323,0.590088 -1.633596,0.674391 -1.633596,0.674391 0,0 -1.249235,-2.613248 -4.612563,-3.034742 z"
       id="path2263" />
    <path
       style="fill:#ead01a;fill-opacity:1;fill-rule:evenodd;stroke:none;stroke-width:0.921075px;stroke-linecap:butt;stroke-linejoin:miter;stroke-opacity:1"
       d="m 46.034076,22.328536 c 0,0 2.11409,-1.854564 4.516464,-2.191755 2.402364,-0.337191 4.996924,-0.505796 4.996924,-0.505796 0,0 0.192197,2.107464 -0.384383,3.371932 -0.576558,1.264477 -0.960941,1.264477 -0.960941,1.264477 0,0 -4.22818,-2.950438 -8.168064,-1.938858 z"
       id="path2265" />
    <path
       style="fill:#ead01a;fill-opacity:1;fill-rule:evenodd;stroke:none;stroke-width:0.921075px;stroke-linecap:butt;stroke-linejoin:miter;stroke-opacity:1"
       d="m 46.322373,52.254409 c 0,0 -2.978943,2.276051 -3.171128,3.793422 -0.192198,1.51737 1.441409,2.866143 1.441409,2.866143 0,0 1.05705,-2.444657 2.306275,-3.034741 1.249237,-0.590093 1.729708,-0.842983 1.729708,-0.842983 0,0 0.864853,-2.107454 -2.306264,-2.781841 z"
       id="path2267" />
    <path
       style="fill:#ead01a;fill-opacity:1;fill-rule:evenodd;stroke:none;stroke-width:0.921075px;stroke-linecap:butt;stroke-linejoin:miter;stroke-opacity:1"
       d="m 90.622073,60.094143 c 0,0 3.843797,-1.517371 4.13208,-2.023162 0.288273,-0.50578 0.288273,-0.674387 0.288273,-0.674387 0,0 1.153137,0.842984 1.729718,1.51738 0.576569,0.674379 0.672667,1.095865 0.672667,1.095865 0,0 -2.210187,2.023161 -6.822738,0.0843 z"
       id="path2269" />
    <path
       style="fill:#ead01a;fill-opacity:1;fill-rule:evenodd;stroke:none;stroke-width:0.921075px;stroke-linecap:butt;stroke-linejoin:miter;stroke-opacity:1"
       d="m 100.42374,99.545715 c 0,0 -0.38438,-2.19176 -1.153128,-2.69754 -0.768759,-0.5058 -1.53753,-0.5058 -1.53753,-0.5058 0,0 1.921898,-1.601655 4.420368,-0.08428 2.49846,1.51736 3.26722,2.866136 3.26722,2.866136 0,0 -3.45943,1.180169 -4.99693,0.421487 z"
       id="path2271" />
    <path
       style="fill:#ead01a;fill-opacity:1;fill-rule:evenodd;stroke:none;stroke-width:0.921075px;stroke-linecap:butt;stroke-linejoin:miter;stroke-opacity:1"
       d="m 51.895865,85.383616 c 0,0 1.057039,-1.685967 3.267216,-1.854564 2.210189,-0.168597 5.573504,0.590093 5.573504,0.590093 0,0 0.480469,2.107455 -0.384383,2.950439 -0.864841,0.842973 -1.249226,1.01157 -1.249226,1.01157 0,0 -3.459412,-3.540521 -7.207111,-2.697538 z"
       id="path2273" />
    <path
       style="fill:#ead01a;fill-opacity:1;fill-rule:evenodd;stroke:none;stroke-width:0.921075px;stroke-linecap:butt;stroke-linejoin:miter;stroke-opacity:1"
       d="m 43.151245,117.66984 c 0,0 0.192185,-2.27605 1.249223,-3.45623 1.057038,-1.18017 3.747698,-2.95044 3.747698,-2.95044 0,0 1.249237,1.51738 1.249237,3.03473 0,1.51738 0,1.51738 0,1.51738 0,0 -4.70865,0.16859 -6.246158,1.85456 z"
       id="path2275" />
    <path
       style="fill:#ead01a;fill-opacity:1;fill-rule:evenodd;stroke:none;stroke-width:0.921075px;stroke-linecap:butt;stroke-linejoin:miter;stroke-opacity:1"
       d="m 62.658488,138.5758 c 0,0 0.576559,-3.45623 1.057041,-4.1306 0.48047,-0.67441 1.249223,-1.34878 1.249223,-1.34878 0,0 1.249237,0.33719 2.498462,1.01157 1.24925,0.67439 1.441435,1.34879 1.441435,1.34879 0,0 -2.11409,2.44464 -6.246161,3.11902 z"
       id="path2277" />
    <path
       style="fill:#ead01a;fill-opacity:1;fill-rule:evenodd;stroke:none;stroke-width:0.921075px;stroke-linecap:butt;stroke-linejoin:miter;stroke-opacity:1"
       d="m 234.49572,123.17724 c 0,0 1.76667,-0.47685 3.12566,-0.35763 1.35898,0.1192 1.90256,0.23842 1.90256,0.23842 0,0 0.13591,1.19217 -0.81538,1.78823 -0.95128,0.59609 -1.2231,0.59609 -1.2231,0.59609 0,0 -1.63078,-2.26511 -2.98974,-2.26511 z"
       id="path2279" />
    <path
       style="fill:#ead01a;fill-opacity:1;fill-rule:evenodd;stroke:none;stroke-width:0.921075px;stroke-linecap:butt;stroke-linejoin:miter;stroke-opacity:1"
       d="m 219.81866,134.74118 c 0,0 1.22308,-2.74197 2.98976,-3.81491 1.76669,-1.07295 2.03849,-1.19215 2.03849,-1.19215 0,0 0.67949,1.90745 0.67949,2.62273 0,0.7153 0,0.7153 0,0.7153 0,0 -4.07696,0.83452 -5.70774,1.66903 z"
       id="path2281" />
    <path
       style="fill:#ead01a;fill-opacity:1;fill-rule:evenodd;stroke:none;stroke-width:0.921075px;stroke-linecap:butt;stroke-linejoin:miter;stroke-opacity:1"
       d="m 223.75974,142.01333 c 0,0 1.49487,-1.78824 2.85386,-2.26509 1.35899,-0.47687 1.49488,-0.47687 1.49488,-0.47687 0,0 0.40767,0.47687 0.40767,1.54981 0,1.07294 0,1.07294 0,1.07294 0,0 -3.26154,-0.23844 -4.75641,0.11921 z"
       id="path2283" />
    <path
       style="fill:#ead01a;fill-opacity:1;fill-rule:evenodd;stroke:none;stroke-width:0.921075px;stroke-linecap:butt;stroke-linejoin:miter;stroke-opacity:1"
       d="m 350.14541,123.77332 c 0,0 -0.13592,-1.19215 0.81538,-1.90744 0.95131,-0.71529 2.17437,-1.31137 2.17437,-1.31137 0,0 0.54361,0.83451 0.27181,1.4306 -0.27181,0.59606 -0.27181,0.59606 -0.27181,0.59606 0,0 -2.03846,0.47686 -2.98975,1.19215 z"
       id="path2285" />
    <path
       style="fill:#ead01a;fill-opacity:1;fill-rule:evenodd;stroke:none;stroke-width:0.921075px;stroke-linecap:butt;stroke-linejoin:miter;stroke-opacity:1"
       d="m 350.82489,134.1451 c 0,0 -0.95129,-1.4306 -0.13589,-2.50353 0.81538,-1.07295 0.81538,-1.07295 0.81538,-1.07295 0,0 1.90259,0.7153 2.17439,1.31137 0.27179,0.59608 0.27179,0.95372 0.27179,0.95372 0,0 -2.58209,0.35765 -3.12567,1.31139 z"
       id="path2287" />
    <path
       style="fill:#ead01a;fill-opacity:1;fill-rule:evenodd;stroke:none;stroke-width:0.921075px;stroke-linecap:butt;stroke-linejoin:miter;stroke-opacity:1"
       d="m 362.64808,139.03294 c 0,0 -2.03849,-1.54981 -1.63078,-2.86117 0.40768,-1.31137 1.49487,-2.14589 1.49487,-2.14589 0,0 1.9026,-0.11921 2.17436,0.95373 0.27182,1.07294 0.27182,1.07294 0.27182,1.07294 0,0 -2.58207,2.02666 -2.31027,2.98039 z"
       id="path2289" />
    <path
       style="fill:#ead01a;fill-opacity:1;fill-rule:evenodd;stroke:none;stroke-width:0.921075px;stroke-linecap:butt;stroke-linejoin:miter;stroke-opacity:1"
       d="m 241.69833,135.09882 c 0,0 -0.95128,-0.59607 -1.90257,-0.47685 -0.9513,0.11921 -1.49488,0.35764 -3.94108,-0.59609 -2.44618,-0.95373 -6.38723,-0.83452 -7.47441,-0.23843 -1.08718,0.59608 -2.17439,0.95373 -1.90258,-0.23843 0.27181,-1.19217 0.8154,-1.07295 0.40771,-2.62275 -0.40771,-1.54979 -0.81541,-3.57648 0.27176,-3.93412 1.08722,-0.35764 5.30009,3.21882 7.74625,3.57647 2.44616,0.35765 5.57183,-0.59608 7.20261,-0.95372 1.63079,-0.35764 2.85389,-0.7153 2.85389,-0.7153 0,0 0,-0.83451 -0.54362,-0.83451 -0.54357,0 -4.48464,1.19217 -6.38721,0.95373 -1.9026,-0.23843 -2.1744,-1.43059 -1.76669,-1.78824 0.4077,-0.35764 3.12569,-0.71529 4.21285,-1.66901 1.08718,-0.95372 1.49488,-3.21883 2.85386,-3.33805 1.359,-0.1192 3.80519,1.19215 5.16417,1.78823 1.35898,0.5961 4.75644,0.5961 6.25132,-0.47687 1.49489,-1.07292 9.24111,-6.07999 12.36677,-7.15293 3.12567,-1.07292 5.57185,-1.43057 5.84366,-2.14588 0.27179,-0.7153 2.44615,-10.84864 3.80514,-13.23294 1.35898,-2.384318 4.34875,-6.795303 11.27959,-7.868242 6.93083,-1.072937 20.65658,-1.669019 26.36433,0.238434 5.70772,1.907451 13.58985,7.152938 15.49241,7.987458 1.90262,0.83451 1.90262,0.83451 1.90262,0.83451 0,0 -19.70531,1.66901 -23.91817,3.57647 -4.21285,1.90745 -11.41548,7.39136 -12.63856,11.4447 -1.22309,4.05334 -1.22309,4.05334 -1.22309,4.05334 0,0 -13.31804,0.23843 -17.53093,1.66901 -4.21286,1.4306 -15.49243,12.51767 -18.07451,13.47138 -2.58206,0.95373 -5.84363,2.02667 -9.7847,2.2651 -3.94105,0.23843 -8.15391,1.07295 -10.05649,2.14589 -1.90257,1.07294 -3.12566,3.45725 -5.84364,3.21881 -2.71796,-0.23841 -1.35896,-2.86117 -1.90257,-4.17254 -0.54361,-1.31138 -2.03849,-2.86119 -1.359,-3.8149 0.6795,-0.95373 1.6308,-1.78823 3.80516,-1.43058 2.17439,0.35764 3.94107,1.19216 5.02827,1.31137 1.0872,0.11921 3.26154,-0.59609 3.39745,-0.83452 z"
       id="path3260" />
    <path
       style="fill:#000000;fill-rule:evenodd;stroke:none;stroke-width:1.01333px;stroke-linecap:butt;stroke-linejoin:miter;stroke-opacity:1"
       d="m 252.84202,135.81413 1.08719,0.11921 0.4077,-0.23844 c 0,0 -0.2718,-2.62275 2.44616,-4.53021 2.71798,-1.90743 2.71798,-1.90743 2.71798,-1.90743 0,0 0.40769,2.02666 0.40769,2.50352 0,0.47687 0,0.47687 0,0.47687 0,0 0.67949,0.23842 0.95129,-0.35766 0.27179,-0.59607 0.27179,-3.57646 0.27179,-3.57646 0,0 1.22309,-0.47687 2.31027,-0.35765 1.08721,0.11921 1.08721,0.11921 1.08721,0.11921 l 0.13588,-1.19215 -0.40768,-0.35765 c 0,0 -3.94106,0.47686 -5.57185,1.43059 -1.63078,0.95372 -6.52315,4.41097 -5.84363,7.86825 z"
       id="path3262" />
    <path
       style="fill:#000000;fill-rule:evenodd;stroke:none;stroke-width:1.01333px;stroke-linecap:butt;stroke-linejoin:miter;stroke-opacity:1"
       d="m 276.08069,117.69332 c 0,0 1.22307,-0.11921 1.63077,0.35765 0.40768,0.47686 -0.4077,1.43061 1.90258,1.19216 2.31027,-0.23844 3.12566,-1.31137 3.94106,-1.54981 0.81539,-0.23843 1.63078,-0.11921 1.63078,-0.11921 0,0 -2.03847,2.2651 -3.94107,2.86119 -1.90256,0.59607 -4.21286,-0.23844 -4.75645,-0.59609 -0.54359,-0.35763 -0.40767,-2.02667 -0.40767,-2.14589 z"
       id="path3264" />
    <path
       style="fill:#000000;fill-rule:evenodd;stroke:none;stroke-width:1.01333px;stroke-linecap:butt;stroke-linejoin:miter;stroke-opacity:1"
       d="m 289.94234,117.69332 c 0,0 1.90258,0 2.03847,-0.95372 0.1359,-0.95372 4.07697,-6.91451 7.74622,-9.06039 3.66927,-2.14589 10.1924,-4.29178 10.1924,-4.29178 0,0 -2.03849,-0.95371 -5.02826,0.11922 -2.98976,1.07295 -14.40525,7.51059 -14.94883,14.18667 z"
       id="path3266" />
    <path
       style="fill:#000000;fill-rule:evenodd;stroke:none;stroke-width:1.01333px;stroke-linecap:butt;stroke-linejoin:miter;stroke-opacity:1"
       d="m 278.25505,107.32156 c 0,0 0.67951,0.11922 0.81539,-0.47687 0.13591,-0.59607 -0.13588,-4.17254 0.27181,-4.88783 0.40769,-0.71529 1.22308,-0.71529 1.22308,-0.71529 0,0 -0.4077,2.02665 0,2.62273 0.40768,0.59608 1.08717,0.59608 1.08717,0.59608 0,0 0.40772,-4.29176 0.95129,-4.649405 0.54362,-0.357657 1.359,-2.384317 1.359,-2.384317 0,0 -2.44618,0.953722 -2.85388,1.907444 -0.40766,0.953748 -0.40766,0.953748 -0.40766,0.953748 0,0 -2.4462,0 -2.71801,1.90744 -0.27178,1.90745 0,5.00705 0.27181,5.12627 z"
       id="path3268" />
    <path
       style="fill:#000000;fill-rule:evenodd;stroke:none;stroke-width:1.01333px;stroke-linecap:butt;stroke-linejoin:miter;stroke-opacity:1"
       d="m 284.91409,102.55294 c 0,0 1.22307,-1.19216 1.35898,-1.78824 0.13589,-0.59608 1.08719,-2.980392 1.90256,-3.814907 0.81541,-0.834505 0.6795,-2.265102 0.6795,-2.265102 0,0 -2.71797,1.669031 -3.80515,4.291773 -1.08719,2.622756 -0.13589,3.814916 -0.13589,3.576476 z"
       id="path3270" />
    <path
       style="fill:#ead01a;fill-opacity:1;fill-rule:evenodd;stroke:none;stroke-width:0.921075px;stroke-linecap:butt;stroke-linejoin:miter;stroke-opacity:1"
       d="m 184.34912,59.873704 c 0,0 -6.25133,3.218834 -9.24108,3.69569 -2.98979,0.476865 -7.88213,0.834515 -8.42573,1.669019 -0.54358,0.834515 -1.63077,2.026668 -1.63077,2.026668 0,0 -5.43595,-3.814904 -11.82319,-6.795294 -6.38724,-2.980389 -12.36677,-5.483923 -19.1617,-6.080007 -6.79492,-0.596072 -8.96929,-1.31137 -14.40525,-3.814904 -5.43594,-2.503523 -19.4335,-7.629798 -21.336063,-12.279209 -1.902592,-4.649411 0,-18.359224 -1.630794,-20.862752 -1.630778,-2.503529 -2.038484,-3.099604 -3.397466,-3.338036 -1.358981,-0.238435 -1.49488,0 -1.49488,0 0,0 -2.038484,2.503529 -3.533361,3.099601 -1.494881,0.596083 -2.174383,0.596083 -2.174383,0.596083 0,0 -1.902585,1.788241 0.407695,3.695687 2.31028,1.907455 4.756447,6.556864 4.348764,10.371766 -0.407708,3.814906 -1.223096,5.960785 -4.076957,5.603144 -2.853885,-0.357649 -10.464202,-5.245492 -14.26936,-8.821963 -3.805161,-3.576479 -5.164142,-6.556864 -9.784702,-8.225887 -4.620546,-1.669023 -5.164139,-1.192157 -5.164139,-1.192157 0,0 -0.271797,3.338036 -1.358983,4.887842 -1.087195,1.549807 -2.31028,1.669023 -2.31028,1.669023 0,0 -0.135896,2.861179 2.174383,3.814903 2.310268,0.953722 5.435937,0.238433 9.648791,2.622747 4.212853,2.384312 11.551375,6.318433 12.77447,7.868236 1.223083,1.549804 -2.853871,2.62275 -5.571846,3.099606 -2.717962,0.476866 -13.318065,0.476866 -17.25912,1.788236 -3.941058,1.311381 -9.241109,3.814905 -8.697505,5.126275 0.54358,1.31138 2.853873,2.026668 3.669262,3.338039 0.815388,1.31137 0.135896,2.384318 1.49488,3.338049 1.35898,0.953721 5.707743,0.715289 6.387234,-1.907462 0.679489,-2.622741 1.494891,-2.98039 2.446179,-3.338029 0.951285,-0.357649 7.202624,-0.953742 10.192382,-1.66903 2.989771,-0.715289 10.464203,-3.457244 13.725771,-3.218823 3.261565,0.238434 10.32829,2.145886 11.687271,3.218823 1.358994,1.072948 1.902588,2.145886 0.679492,2.9804 -1.223084,0.834505 -2.853873,1.192154 -2.717974,2.265091 0.135898,1.072948 2.310279,1.192165 3.125669,2.265102 0.815401,1.072937 1.902576,3.099606 2.98978,2.145875 1.08718,-0.953722 -0.951299,-5.483914 -0.40771,-6.318429 0.5436,-0.834504 2.58209,-1.907443 3.66926,-1.788226 1.08719,0.119217 22.69506,8.821953 23.64637,10.490983 0.95127,1.66901 0.95127,6.318429 0.95127,6.318429 0,0 1.76669,0 2.0385,-2.145885 0.27179,-2.145886 0.27179,-2.503534 0.27179,-2.503534 0,0 1.2231,2.2651 1.90258,3.57647 0.67949,1.31137 1.49488,2.98039 1.49488,2.98039 0,0 0.1359,-1.907441 -0.1359,-3.457244 -0.27178,-1.549814 -0.81538,-3.33805 -0.81538,-3.33805 0,0 7.88211,9.537262 10.87188,10.967849 2.98976,1.430597 8.28983,2.384317 10.73599,2.145884 2.44616,-0.238432 3.12566,-1.430596 3.12566,-1.430596 0,0 -8.69749,-2.741956 -10.32827,-5.126275 -1.6308,-2.384307 -1.6308,-5.126275 -1.6308,-5.126275 0,0 1.76669,0 1.6308,0.596082 -0.13592,0.596082 2.03845,6.437655 8.2898,7.62981 6.25133,1.192153 13.04625,-6.318429 13.04625,-6.318429 0,0 1.08718,-0.119217 1.6308,0.238432 0.54359,0.357639 0.54359,0.357639 0.54359,0.357639 0,0 -5.84365,5.00706 -8.01802,5.960789 -2.17437,0.953722 -2.17437,0.953722 -2.17437,0.953722 0,0 1.08718,1.430597 5.57183,1.192164 4.48467,-0.238443 9.51291,-5.483934 9.51291,-5.483934 0,0 0.8154,-0.119217 1.08718,0.357649 0.27181,0.476876 0.27181,0.715299 0.27181,0.715299 0,0 -3.39747,3.814894 -4.75645,4.649419 -1.35898,0.834504 -2.85387,1.192154 -2.85387,1.192154 0,0 -1.49489,2.861173 -2.71799,3.934121 -1.22308,1.072936 -2.85388,2.026658 -2.85388,2.026658 0,0 6.11546,0.238434 10.87192,-1.788225 4.75642,-2.026679 9.24108,-5.364708 9.24108,-5.364708 0,0 -0.81539,4.172543 -2.85385,7.152933 -2.03849,2.9804 -10.3283,7.152944 -10.3283,7.152944 0,0 6.52312,1.907452 13.99756,-2.265101 7.47441,-4.172544 8.56159,-9.179603 9.64878,-11.921559 1.0872,-2.741967 4.21286,-4.768636 4.21286,-4.768636 0,0 -2.17439,4.649419 -2.58206,6.318438 -0.40769,1.66901 -1.76668,8.821963 -3.80517,11.087055 -2.03848,2.265101 -7.61032,6.079995 -7.61032,6.079995 0,0 4.21286,0.834515 9.24112,-3.814894 5.02823,-4.649409 6.93081,-13.352156 9.64878,-16.451772 2.71796,-3.099606 4.48465,-3.457245 4.48465,-3.457245 0,0 -4.07695,5.960779 -6.11542,10.729405 -2.03848,4.768636 -4.48467,10.25255 -9.64881,12.87529 -5.16415,2.622751 -17.25911,0.596093 -17.25911,0.596093 0,0 9.92059,-1.311381 13.31806,-5.245502 3.39745,-3.934111 3.12567,-4.29176 3.12567,-4.29176 0,0 -5.43595,5.245491 -13.99757,6.079996 -8.56159,0.834515 -14.13343,-0.834505 -14.13343,-0.834505 0,0 9.78468,-3.695688 11.82318,-6.080006 2.03846,-2.384307 2.03846,-2.384307 2.03846,-2.384307 0,0 -7.20262,2.62274 -9.7847,2.62274 -2.58207,0 -8.42571,0 -8.42571,0 0,0 -0.67949,2.265102 -3.80516,3.934121 -3.12565,1.669019 -5.84365,2.145885 -5.84365,2.145885 0,0 4.48466,0.834505 6.65905,0.476865 2.17437,-0.357648 5.30005,-1.788245 5.30005,-1.788245 0,0 -0.95131,2.145885 -3.12568,2.741967 -2.17437,0.596072 -6.38724,0.953721 -8.15392,0.596072 -1.76669,-0.35764 -6.11543,-2.98039 -6.11543,-2.98039 0,0 5.70773,0.476865 9.10521,-1.66902 3.39747,-2.145875 2.85385,-2.98039 2.85385,-2.98039 0,0 -10.05649,0.238434 -12.50266,0 -2.44616,-0.238432 -3.12567,-0.715298 -3.12567,-0.715298 0,0 7.61032,-0.119217 10.3283,-2.622741 2.71798,-2.503534 4.34875,-3.695687 4.34875,-3.695687 0,0 -6.93083,-0.476865 -10.32829,-1.788237 -3.39746,-1.31138 -4.34876,-2.026667 -4.34876,-2.026667 0,0 -11.00777,0 -15.62834,-1.072939 -4.62054,-1.072946 -9.78468,-2.861183 -9.78468,-2.861183 0,0 4.62055,4.887852 10.60008,6.914511 5.97953,2.026668 12.23088,1.192164 12.23088,1.192164 0,0 -3.53336,2.384318 -10.87191,3.457255 -7.3385,1.072937 -13.99755,-1.788236 -15.35653,-2.503534 -1.35897,-0.715299 -6.11543,-2.98039 -6.11543,-2.98039 0,0 3.26156,6.318429 13.18219,8.464314 9.92057,2.145885 15.35651,0.834514 16.4437,1.192164 1.08719,0.357638 1.08719,0.357638 1.08719,0.357638 0,0 -3.39747,2.02667 -6.38722,2.384309 -2.9898,0.357649 -18.07452,-0.596072 -18.07452,-0.596072 0,0 4.21284,2.145884 8.1539,2.741968 3.94106,0.596071 9.10522,0.357638 10.60009,0 1.49489,-0.35765 6.11545,-0.35765 8.56161,0.834503 2.44619,1.192154 5.02826,3.099618 3.12566,4.768626 -1.90256,1.66902 -5.02822,2.02667 -5.43591,2.980392 -0.40773,0.953738 -2.85389,2.503538 -6.11545,2.861188 -3.26156,0.35764 -10.46419,0.59607 -13.86166,1.5498 -3.39746,0.95373 -6.93083,2.74195 -6.93083,2.74195 0,0 0,2.26511 1.08719,2.26511 1.08718,0 2.03847,-0.59609 2.17437,-1.90746 0.13591,-1.31137 1.9026,-1.19215 1.9026,-1.19215 0,0 -0.54362,2.62275 0.81537,2.62275 1.35899,0 3.80518,0.47686 3.80518,-0.71529 0,-1.19216 0.81539,-2.50353 1.49488,-2.62275 0.6795,-0.11922 0.6795,-0.11922 0.6795,-0.11922 0,0 -0.8154,3.09961 0.27178,3.09961 1.0872,0 3.80518,-0.47686 4.75644,-0.23844 0.9513,0.23844 0.9513,0.23844 0.9513,0.23844 0,0 -1.49488,0.95373 -2.98977,1.19216 -1.49489,0.23842 -8.1539,0.35764 -9.51288,0.59607 -1.35899,0.23844 -5.70776,1.31137 -5.70776,1.31137 0,0 0,0.23844 0.4077,0.83451 0.4077,0.59609 0.6795,0.7153 0.6795,0.7153 0,0 5.57184,-2.14588 10.46419,-1.90746 4.89236,0.23844 13.31806,3.57648 15.22062,6.67608 1.9026,3.09963 1.22312,12.16 1.22312,12.16 0,0 3.12565,-2.74194 4.21283,-7.39136 1.0872,-4.64942 0,-8.46432 0,-8.46432 0,0 1.76669,3.45725 2.44619,6.19922 0.67948,2.74195 0.54359,4.17255 0.54359,4.17255 0,0 4.34877,-2.14589 5.30004,-7.03374 0.95129,-4.88783 0.95129,-7.98744 0.95129,-7.98744 0,0 2.03848,5.36471 0.40769,12.51765 -1.63078,7.15294 -9.51288,11.44471 -9.51288,11.44471 0,0 14.26935,-0.11923 19.16169,-5.9608 4.89236,-5.84156 6.65904,-12.2792 6.79494,-14.78274 0.13591,-2.50353 0.13591,-3.8149 0.13591,-3.8149 0,0 0.81536,5.24549 0.40766,8.70274 -0.40766,3.45726 -2.85385,10.25255 -2.85385,10.25255 0,0 9.37701,-1.07293 14.40525,-8.82196 5.02825,-7.74901 5.43593,-14.78274 5.43593,-16.57097 0,-1.78825 0,-2.384312 0,-2.384312 0,0 9.377,-4.768631 11.68729,-5.007063 2.31027,-0.238444 4.75646,0.834505 4.75646,0.834505 0,0 -2.1744,0.715298 -3.66928,0.95372 -1.4949,0.238433 -7.20263,2.265104 -8.56159,3.099615 -1.359,0.834515 -2.44618,1.669025 -2.44618,2.861175 0,1.19215 -0.40771,6.91451 1.08718,8.46432 1.49488,1.54979 4.62056,1.31137 6.52312,0.47686 1.90257,-0.83451 5.70775,-3.57648 6.52313,-3.57648 0.81541,0 1.35899,0.23844 1.35899,0.23844 0,0 -2.85387,2.98039 -4.48465,3.93411 -1.63079,0.95372 -2.85386,1.19216 -2.85386,1.19216 0,0 2.71795,2.02668 5.43593,1.66903 2.71798,-0.35765 5.70773,-3.21883 6.52314,-4.05335 0.81539,-0.8345 2.98977,-1.54979 2.98977,-1.54979 0,0 -1.76668,3.21881 -2.85388,4.17254 -1.08718,0.95373 -3.26156,2.14589 -2.85385,2.62275 0.40769,0.47686 6.38722,0.59607 7.47441,-0.23843 1.0872,-0.83451 6.11542,-4.29177 7.06673,-4.64942 0.9513,-0.35765 0.81538,1.31137 -0.2718,2.38432 -1.08718,1.07294 -3.66928,2.86118 -3.66928,2.86118 0,0 10.05651,1.43058 15.90015,-0.71529 5.84365,-2.14589 24.73354,-11.56395 28.26691,-13.35216 3.53336,-1.78824 22.28736,-10.252556 27.58741,-11.206278 5.30005,-0.953731 17.25912,-1.192163 19.56939,-1.192163 2.31028,0 6.52314,0.715298 6.52314,0.715298 0,0 -2.03848,-1.549813 -3.53337,-2.026679 -1.49487,-0.476855 -2.17437,-0.596072 -2.17437,-0.596072 0,0 0.95128,-0.953721 1.63078,-0.953721 0.67949,0 5.43596,1.788226 9.24111,3.695689 3.80515,1.907442 11.14368,7.98745 16.71552,10.848626 5.57184,2.86118 20.24888,10.84862 24.05405,11.08706 3.80516,0.23842 14.81295,-1.31137 17.53092,-0.35765 2.71796,0.95372 5.02823,4.29176 4.89235,6.19921 -0.13588,1.90746 -4.48465,3.33806 -4.48465,4.05335 0,0.71527 0.40768,3.93411 -2.98979,4.41097 -3.39744,0.47686 -5.70774,-0.35764 -8.96929,-3.81491 -3.26157,-3.45724 -5.70774,-5.48391 -8.01803,-5.3647 -2.31026,0.11922 -2.31026,1.07295 -2.31026,1.07295 0,0 0.67949,2.02667 0.40771,2.86119 -0.27182,0.8345 -0.40771,1.07292 -0.40771,1.07292 0,0 1.22308,1.07294 2.17436,0.95372 0.9513,-0.11922 2.44619,-0.47687 3.53337,0.35766 1.08718,0.83451 1.08718,1.66901 2.44618,1.78823 1.35897,0.11922 1.35897,0.11922 1.35897,0.11922 0,0 0,0.35765 -0.95128,0.71529 -0.95128,0.35764 -3.39745,-0.95373 -4.21285,-1.43058 -0.8154,-0.47687 -1.4949,-0.23844 -2.71796,0.35765 -1.22308,0.59607 -2.98978,1.66901 -3.26159,2.62273 -0.2718,0.95374 -0.2718,0.95374 -0.2718,0.95374 0,0 2.17441,1.5498 2.58209,2.50352 0.40769,0.95373 0.40769,0.95373 0.40769,0.95373 0,0 0.95129,0.95373 2.44617,1.07294 1.4949,0.11922 2.98977,-0.83452 2.98977,-0.83452 0,0 -0.81539,-1.90744 1.0872,-3.21882 1.90256,-1.31138 8.42572,-0.95372 9.7847,-0.83449 1.35898,0.11921 2.44616,0.11921 2.44616,0.11921 0,0 -0.81537,0.8345 -2.98978,0.95371 -2.17437,0.11922 -6.52311,0 -7.88209,1.19216 -1.35899,1.19216 -0.8154,1.66902 -0.8154,1.66902 0,0 2.17438,0 2.85388,0.7153 0.67948,0.7153 0.81538,2.98039 0.81538,2.98039 0,0 2.58207,0.11921 3.66927,-0.95371 1.08718,-1.07295 3.80514,-1.07295 5.84362,-0.95373 2.03849,0.11921 5.70775,-0.23843 6.79495,-2.62275 1.08717,-2.38433 0.95127,-2.38433 0.95127,-2.38433 0,0 -2.44614,-0.59606 -3.66926,0.11922 -1.22308,0.7153 -1.22308,0.7153 -1.22308,0.7153 0,0 -0.40769,-1.43058 0.81539,-2.02668 1.22308,-0.59607 4.75646,0.11923 6.52313,-1.07293 1.76669,-1.19216 2.85388,-4.5302 4.34875,-6.43764 1.49489,-1.90746 6.93082,-5.60314 6.52315,-6.7953 -0.4077,-1.19217 -2.58209,-4.88784 -2.85388,-6.43764 -0.2718,-1.54981 -2.31029,-4.17256 -3.94107,-4.29178 -1.63076,-0.11922 -14.26935,-0.23844 -19.43349,-4.172552 -5.16413,-3.934111 -8.2898,-8.106656 -10.19241,-12.517642 -1.90255,-4.410986 -6.79491,-7.868241 -8.15389,-8.58353 -1.35899,-0.715298 -3.94105,-1.66902 -3.94105,-1.66902 0,0 2.03847,-0.95372 2.85385,-0.596081 0.81541,0.357648 5.30005,2.384317 7.20264,4.410985 1.90257,2.02666 3.26156,3.695679 3.26156,3.695679 0,0 8.5616,-0.476855 23.10275,6.914522 14.54115,7.391365 26.77203,14.305889 37.77981,13.948239 11.0078,-0.35765 24.18996,-3.09961 27.45153,-9.537263 3.26155,-6.437656 5.97952,-14.663526 1.22306,-18.716864 -4.75644,-4.053338 -11.55136,-10.610199 -24.18993,-9.894901 -12.63859,0.715289 -23.64636,5.483914 -34.51824,6.795285 -10.87189,1.31137 -19.56941,-0.953722 -21.60787,-6.437646 -2.03849,-5.483914 1.76666,-10.014117 8.4257,-13.829021 6.65903,-3.814904 14.67705,-3.338039 23.10277,-1.66902 8.4257,1.66902 32.07206,8.464314 40.36187,6.676078 8.28981,-1.788225 13.86167,-6.199212 11.55137,-11.921559 -2.31025,-5.722366 -3.39744,-7.033737 -3.12567,-8.225892 0.2718,-1.192156 0.2718,-1.192156 0.2718,-1.192156 0,0 -3.66924,3.457248 -2.71797,7.033721 0.9513,3.576482 0.67952,7.510603 -0.81539,8.702756 -1.49488,1.192154 -5.70772,1.669009 -5.70772,1.669009 0,0 6.25133,-2.265091 4.89233,-7.272149 -1.35897,-5.007059 -6.38722,-12.160001 -5.57182,-17.763144 0.81538,-5.603142 4.62054,-8.46431 4.62054,-8.46431 0,0 -5.16417,-0.119218 -7.47442,3.695684 -2.31028,3.814903 -0.27178,11.325493 0.95129,12.994506 1.2231,1.669022 3.39746,7.391378 2.03847,10.490984 -1.35899,3.099616 -4.89235,3.457267 -4.89235,3.457267 0,0 4.75647,-4.530204 3.26155,-8.225892 -1.49486,-3.695689 -6.25132,-9.775687 -5.57182,-14.425106 0.67949,-4.649408 4.89233,-8.46431 6.65902,-8.941177 1.76669,-0.476856 1.76669,-0.476856 1.76669,-0.476856 0,0 -5.84364,-2.145889 -8.42571,-0.953734 -2.58207,1.192157 -9.9206,5.245492 -7.74621,10.848634 2.17437,5.603143 8.5616,10.25255 8.69749,13.352157 0.1359,3.099606 -0.67949,5.96079 -2.71797,7.033727 -2.03846,1.072948 -3.94105,0.715288 -3.94105,0.715288 0,0 5.30004,-2.741947 4.89235,-6.437644 -0.4077,-3.69569 -8.96931,-9.298819 -9.37701,-13.471371 -0.40769,-4.172553 0.1359,-6.079999 1.76668,-8.464311 1.63078,-2.384323 1.63078,-2.384323 1.63078,-2.384323 0,0 -6.38722,1.788239 -7.88212,5.960791 -1.49487,4.172553 2.03849,8.106663 3.94105,10.133336 1.9026,2.026663 5.84365,4.410973 5.57186,7.749022 -0.27178,3.338039 -2.85388,4.887842 -6.52311,5.007058 -3.66929,0.119217 -21.60789,-4.172554 -28.81052,-4.053337 -7.20262,0.119217 -19.43349,2.503534 -25.54894,7.510592 -6.11542,5.007059 -10.05648,14.90197 -3.94106,20.743533 6.11544,5.841563 16.98733,7.152933 26.77203,6.556861 9.7847,-0.596082 21.33607,-6.079996 32.88746,-7.033727 11.55137,-0.953721 16.98731,1.192154 21.20019,5.126275 4.21285,3.934121 4.21285,10.371766 0.54359,14.305887 -3.66926,3.934122 -14.81296,8.702742 -24.46176,7.272151 -9.64879,-1.430577 -29.89769,-12.398426 -38.86698,-15.378815 -8.96931,-2.98039 -39.27471,-10.848632 -51.77738,-13.352166 -12.50266,-2.503525 -19.7053,-5.722358 -19.7053,-5.722358 0,0 2.3103,-0.95372 7.20264,-0.834505 4.89234,0.119217 16.98732,1.192155 21.47198,-0.119215 4.48465,-1.31137 7.20262,-2.980391 7.20262,-2.980391 0,0 -6.65903,-0.715298 -10.60008,-2.265101 -3.94107,-1.549803 -12.23087,-4.172543 -15.35653,-4.291759 -3.12567,-0.119217 -7.33855,-0.119217 -7.33855,-0.119217 0,0 1.90258,-1.669019 10.46421,-2.384307 8.5616,-0.715299 22.55917,3.099595 26.36431,2.62274 3.80516,-0.476867 10.73598,-3.814916 10.73598,-3.814916 0,0 -12.63857,-1.907441 -15.90012,-2.980379 -3.26157,-1.072936 -5.30004,-2.741966 -8.28981,-2.861183 -2.98979,-0.119217 -4.07695,-0.476865 -4.07695,-0.476865 0,0 5.97952,-1.311371 9.78469,-1.192154 3.80514,0.119215 22.96686,1.192154 28.53868,-2.026669 5.57185,-3.218825 8.15393,-7.510586 8.15393,-7.510586 0,0 -10.19239,3.099605 -22.83097,3.338038 -12.63855,0.238434 -29.76178,-2.622748 -33.97464,-2.741964 -4.21285,-0.119216 -4.21285,-0.119216 -4.21285,-0.119216 0,0 9.1052,-2.741955 12.77447,-2.384313 3.66926,0.357648 36.8285,-0.953725 45.25423,-2.384313 8.42569,-1.43059 16.71552,-3.57647 19.16169,-8.225879 2.44618,-4.649418 2.58207,-7.987455 2.58207,-7.987455 0,0 -9.6488,5.245493 -26.50021,7.987455 -16.85141,2.741954 -33.83875,2.86117 -38.18751,2.741954 -4.34875,-0.119207 -5.02825,-0.834507 -5.02825,-0.834507 0,0 29.62588,-0.238434 41.72086,-3.218819 12.09499,-2.980396 18.75402,-5.72236 19.1617,-7.749022 0.40772,-2.0266726 0.40772,-2.2651055 0.40772,-2.2651055 0,0 -8.42574,7.6298035 -31.12079,10.1333435 -22.69505,2.50353 -24.46175,-0.476867 -24.46175,-0.476867 0,0 2.31028,-1.192155 2.44618,-2.265096 0.1359,-1.072939 0.1359,-1.072939 0.1359,-1.072939 0,0 -10.05649,3.218819 -13.18215,3.576468 -3.12567,0.357641 -3.12567,0.357641 -3.12567,0.357641 0,0 -9.92061,2.026672 -20.24891,2.026672 -10.32828,0 -21.06428,0 -21.06428,0 0,0 -3.26154,2.622747 -4.34874,3.576469 -1.08721,0.953723 -1.08721,0.953723 -1.08721,0.953723 0,0 3.39748,3.57648 15.76425,3.57648 12.36677,0 24.59765,-3.338046 27.04383,-4.649418 2.44617,-1.311374 11.00777,-5.36471 11.00777,-5.36471 0,0 -1.22309,2.14589 -6.38722,4.768635 -5.16416,2.622746 -7.61033,3.934119 -7.61033,3.934119 0,0 21.87966,-1.549806 29.76178,-1.907455 7.88212,-0.357651 38.18751,-3.338037 38.18751,-3.338037 0,0 -1.35899,1.43059 -10.19241,2.50353 -8.83338,1.07294 -49.60296,4.053336 -54.63122,4.291759 -5.02825,0.238433 -24.05404,2.026674 -30.98487,1.430591 -6.93083,-0.596076 -14.13346,-3.814904 -14.13346,-3.814904 0,0 -1.63078,1.549806 -2.17436,1.78824 -0.5436,0.238433 -1.6308,0.596073 -1.6308,0.596073 v 1.311374 c 0,0 12.50268,0.596082 16.30784,1.669022 3.80514,1.07294 9.5129,4.053337 9.5129,4.053337 0,0 0.54359,-2.14588 0.27179,-3.21883 -0.27179,-1.07294 -0.27179,-1.07294 -0.27179,-1.07294 0,0 1.22308,-0.238434 1.90258,0 0.67949,0.238433 0.67949,0.238433 0.67949,0.238433 0,0 -1.08718,7.629803 -2.31028,10.01412 -1.22308,2.384309 -2.58207,3.934121 -2.58207,3.934121 0,0 5.16415,2.384308 5.97954,3.099607 0.81538,0.715298 0.81538,0.834515 0.81538,0.834515 0,0 -2.17436,3.814894 -2.98975,4.887841 -0.81539,1.072938 -1.2231,1.788236 -1.2231,1.788236 0,0 2.17439,1.311371 2.85387,2.145874 0.67951,0.834515 0.8154,1.311381 0.8154,1.311381 0,0 -0.54361,0.715299 -1.08719,0.953722 -0.54359,0.238433 -0.54359,0.238433 -0.54359,0.238433 0,0 -1.35899,-2.265102 -2.31028,-2.622751 -0.95129,-0.35764 -0.95129,-0.35764 -0.95129,-0.35764 0,0 -4.75647,5.245481 -5.84364,5.96078 -1.08719,0.715299 -1.90258,1.311381 -1.90258,1.311381 0,0 2.85387,2.026658 3.26156,2.98038 0.40769,0.95374 0.40769,0.95374 0.40769,0.95374 0,0 -0.54358,0.715289 -1.22306,0.834505 -0.67951,0.119217 -0.67951,0.119217 -0.67951,0.119217 0,0 -0.95129,-1.430598 -1.90258,-2.265103 -0.9513,-0.834515 -1.63079,-1.072936 -1.63079,-1.072936 0,0 -3.12567,2.026658 -4.62055,2.980389 -1.49488,0.953732 -2.03848,1.072939 -2.03848,1.072939 0,0 2.1744,2.026668 3.12567,2.861172 0.95131,0.834525 0.95131,0.834525 0.95131,0.834525 0,0 -8.56164,4.410977 -13.18217,4.768626 -4.62056,0.357649 -17.25913,0 -17.25913,0 0,0 -3.94105,2.384307 -5.97955,3.576462 -2.03846,1.192164 -3.66924,2.2651 -3.66924,2.2651 0,0 6.65901,0.715299 10.46418,0.715299 3.80517,0 8.28982,-0.476865 8.28982,-0.476865 0,0 -0.40771,1.907452 -1.0872,1.907452 -0.67949,0 -22.96685,-0.715298 -26.22843,-0.119216 -3.26156,0.596071 -10.05648,3.218822 -11.82316,4.768626 -1.76669,1.549813 -2.31028,2.265101 -2.31028,2.265101 l -0.95129,-0.35765 -0.54359,-0.715298 c 0,0 5.02823,-4.291759 9.78469,-5.722357 4.75646,-1.430577 11.68729,-2.861163 19.02581,-7.152932 7.33852,-4.291771 11.14368,-7.629811 11.55137,-14.782744 0.40771,-7.152953 -6.93082,-12.636867 -8.8334,-14.425103 -1.90259,-1.788246 -3.66928,-7.510593 -2.03848,-9.775685 1.63077,-2.265112 3.94106,-3.099616 3.94106,-3.099616 0,0 0.81537,-1.549804 0.13591,-2.503527 -0.6795,-0.953723 -2.5821,-1.669023 -2.5821,-1.669023 0,0 7.61033,-0.238433 9.64881,-1.311375 2.03848,-1.072939 13.58985,-6.556864 18.07451,-10.967841 4.48466,-4.410985 7.06673,-6.795299 7.06673,-6.795299 0,0 -1.359,2.622748 -1.2231,3.218831 0.1359,0.596073 0.1359,0.596073 0.1359,0.596073 0,0 30.98488,0.834517 38.73111,-1.907446 7.74621,-2.741964 11.55138,-8.4643216 11.55138,-8.4643216 0,0 -18.21041,7.5105886 -31.12079,7.8682366 -12.91036,0.357652 -13.18216,0.7153 -13.99755,1.192159 -0.81539,0.476865 -0.81539,0.476865 -0.81539,0.476865 0,0 -0.54359,-1.669024 0.4077,-2.50353 0.95129,-0.834515 1.6308,-2.861179 1.6308,-4.053334 0,-1.192157 0,-1.192157 0,-1.192157 0,0 -3.80517,3.218819 -9.51293,4.530192 -5.70773,1.311374 -23.78223,4.530202 -33.83873,12.04079 -10.0565,7.510591 -12.63858,14.305891 -11.82316,17.405488 0.81536,3.099615 3.53335,3.93412 7.74619,5.483934 4.21285,1.549802 8.96931,5.483923 8.69751,10.014117 -0.2718,4.530192 -2.03847,11.563919 -5.70773,13.232939 -3.66928,1.669029 -13.45396,5.722346 -14.94884,6.795304 -1.49488,1.072938 -1.49488,2.265091 -2.85388,2.861163 -1.359,0.596082 -1.359,0.596082 -1.359,0.596082 0,0 1.08721,-3.695677 5.16416,-5.60314 4.07695,-1.907442 15.35653,-5.364708 16.98732,-13.709805 1.63078,-8.345098 -2.31026,-10.967838 -6.38722,-12.756074 -4.07697,-1.788246 -9.377,-3.218833 -9.51292,-7.629809 -0.13589,-4.410988 4.07696,-11.68314 12.09499,-17.524706 8.01801,-5.841574 19.70528,-9.060393 23.51046,-9.775692 3.80516,-0.715292 13.45396,-3.099605 14.67704,-4.530195 1.22308,-1.430588 1.22308,-1.430588 1.22308,-1.430588 0,0 -3.80517,2.384312 -9.78467,3.338037 -5.97956,0.953732 -19.43352,3.218828 -29.21822,10.490982 -9.7847,7.272155 -14.26937,11.683143 -14.81293,19.074512 -0.54361,7.391377 2.98975,8.464324 6.52313,9.656479 3.53336,1.192153 8.2898,0.95372 8.96929,5.960779 0.67949,5.007058 0.67949,7.510593 -5.57184,12.517651 -6.25134,5.007059 -14.67705,5.364707 -18.8899,4.410987 -4.21286,-0.953731 -8.83341,-5.483924 -10.32829,-7.749027 -1.4949,-2.26509 -1.4949,-2.26509 -1.4949,-2.26509 0,0 -2.31026,1.788226 -3.94103,2.741946 -1.6308,0.953742 -2.3103,1.072958 -2.3103,1.072958 0,0 1.49488,-3.218832 1.22308,-4.29177 -0.27176,-1.072948 -0.54358,-1.430597 -0.54358,-1.430597 0,0 -3.26157,4.887843 -7.06673,5.841574 -3.80516,0.95373 -9.1052,0.476865 -9.1052,0.476865 0,0 4.21285,-1.907452 5.30004,-4.530193 1.0872,-2.62275 0.95129,-2.62275 0.95129,-2.62275 0,0 -4.21286,3.218823 -7.20262,3.695688 -2.98976,0.476854 -5.02825,-0.238433 -5.02825,-0.238433 0,0 6.65903,-4.649409 4.89234,-7.868243 z"
       id="path4301" />
    <path
       style="fill:#ead01a;fill-opacity:1;fill-rule:evenodd;stroke:none;stroke-width:0.921075px;stroke-linecap:butt;stroke-linejoin:miter;stroke-opacity:1"
       d="m 151.18987,83.716854 c 0,0 4.62056,-2.503535 6.38723,-5.245492 1.76669,-2.741956 1.76669,-2.861173 1.76669,-2.861173 0,0 4.75646,1.549802 6.11543,1.669019 1.35901,0.119207 1.76669,0 1.76669,0 0,0 -2.03848,3.099607 -4.21285,4.172544 -2.17439,1.072938 -6.93084,2.980389 -11.82319,2.265102 z"
       id="path4303" />
    <path
       style="fill:#ead01a;fill-opacity:1;fill-rule:evenodd;stroke:none;stroke-width:0.921075px;stroke-linecap:butt;stroke-linejoin:miter;stroke-opacity:1"
       d="m 256.23948,75.729406 c 0,0 7.74622,-0.476876 11.14369,-1.669031 3.39745,-1.192153 3.80514,-1.669019 3.80514,-1.669019 0,0 -6.65901,-2.503534 -8.2898,-2.98039 -1.63077,-0.476865 -2.44617,-0.596081 -2.71798,-1.192153 -0.27179,-0.596082 -0.27179,-0.596082 -0.27179,-0.596082 0,0 5.57184,1.430587 9.377,-1.430587 3.80519,-2.861184 5.70774,-3.934121 5.70774,-3.934121 0,0 -5.97952,-2.98039 -10.3283,-3.695689 -4.34874,-0.715288 -4.62055,-0.715288 -4.62055,-0.715288 0,0 6.93083,-4.172553 7.88213,-5.841572 0.9513,-1.669019 1.49488,-2.503535 1.49488,-2.503535 0,0 -6.38723,-1.072938 -8.56161,-1.192154 -2.17438,-0.119217 -3.12567,-0.119217 -3.12567,-0.119217 0,0 3.39746,-4.172543 3.66927,-5.483914 0.27181,-1.31137 0.27181,-1.907461 0.27181,-1.907461 0,0 -4.34876,0 -5.57186,0 -1.2231,0 -1.76667,0.119216 -1.76667,0.119216 0,0 0.81538,-2.503525 0.81538,-3.099608 0,-0.596074 -0.27181,-1.669013 -0.27181,-1.669013 l -3.39745,0.119217 c 0,0 0.95129,2.145879 0.67947,3.457249 -0.27176,1.311371 -1.76666,1.192155 -2.58204,1.907454 -0.8154,0.715298 -3.53337,4.291759 -1.49489,7.510591 2.03849,3.218824 9.24111,8.702747 10.1924,13.829023 0.95128,5.126274 -1.76669,12.756084 -2.03849,12.756084 z"
       id="path4305" />
    <path
       style="fill:#ead01a;fill-opacity:1;fill-rule:evenodd;stroke:none;stroke-width:0.921075px;stroke-linecap:butt;stroke-linejoin:miter;stroke-opacity:1"
       d="m 252.1625,79.425083 c 0,0 1.90261,-1.072937 2.58209,-1.788235 0.67949,-0.715288 0.67949,-0.715288 0.67949,-0.715288 0,0 10.0565,0 13.18218,-1.311371 3.12566,-1.31138 6.11542,-2.384319 6.11542,-2.384319 l 3.39746,2.503536 c 0,0 -8.42569,3.218812 -12.63856,3.814894 -4.21284,0.596082 -13.04626,0.238432 -13.31808,-0.119217 z"
       id="path4307" />
    <path
       style="fill:#ead01a;fill-opacity:1;fill-rule:evenodd;stroke:none;stroke-width:0.921075px;stroke-linecap:butt;stroke-linejoin:miter;stroke-opacity:1"
       d="m 266.29597,69.053318 c 0,0 4.34876,1.907452 5.97953,2.026668 1.63078,0.119216 3.39747,-0.238423 4.75645,-1.192164 1.359,-0.953721 4.62055,-3.338029 4.62055,-3.338029 -1.67385,-1.32599 -3.46719,-2.497789 -5.43591,-3.457255 -3.47382,3.158503 -6.80874,5.342361 -9.92062,5.96078 z"
       id="path4309" />
    <path
       style="fill:#ead01a;fill-opacity:1;fill-rule:evenodd;stroke:none;stroke-width:0.921075px;stroke-linecap:butt;stroke-linejoin:miter;stroke-opacity:1"
       d="m 283.2833,65.476845 c 0,0 4.07696,-3.218822 5.57183,-4.649409 1.49488,-1.430587 2.03849,-2.384318 2.03849,-2.384318 0,0 -2.31028,-1.669009 -3.66927,-2.265091 -1.35898,-0.596092 -2.31026,-0.834515 -2.31026,-0.834515 0,0 -3.66928,3.576473 -5.02826,4.768626 -1.35899,1.192164 -2.58207,1.907452 -2.58207,1.907452 0,0 4.34874,2.026669 5.97954,3.457255 z"
       id="path4311" />
    <path
       style="fill:#ead01a;fill-opacity:1;fill-rule:evenodd;stroke:none;stroke-width:0.921075px;stroke-linecap:butt;stroke-linejoin:miter;stroke-opacity:1"
       d="m 286.00127,53.555277 c 0,0 2.17436,-2.503524 2.85386,-3.576473 0.6795,-1.072937 0.81538,-1.192153 0.81538,-1.192153 0,0 3.39749,1.549804 4.89238,2.265102 1.49489,0.715287 1.49489,1.072936 1.49489,1.072936 0,0 -1.35899,2.265091 -2.17439,3.33804 -0.81539,1.072947 -1.49488,1.430586 -1.49488,1.430586 0,0 -2.31027,-1.788236 -6.38724,-3.338038 z"
       id="path4313" />
    <path
       style="fill:#ead01a;fill-opacity:1;fill-rule:evenodd;stroke:none;stroke-width:0.921075px;stroke-linecap:butt;stroke-linejoin:miter;stroke-opacity:1"
       d="m 275.94477,60.708219 c 0,0 2.98979,-2.265101 4.62056,-3.814904 1.63079,-1.549803 2.31027,-2.62274 2.31027,-2.62274 0,0 -2.03846,-1.788236 -6.11544,-2.980391 -4.07695,-1.192163 -4.89235,-0.953729 -4.89235,-0.953729 0,0 -2.17436,3.099605 -4.34873,4.88784 -2.17439,1.788237 -2.71799,2.026669 -2.71799,2.026669 0,0 8.96931,1.907452 11.14368,3.457255 z"
       id="path4315" />
    <path
       style="fill:#ead01a;fill-opacity:1;fill-rule:evenodd;stroke:none;stroke-width:0.921075px;stroke-linecap:butt;stroke-linejoin:miter;stroke-opacity:1"
       d="m 273.3627,48.905867 c 0,0 2.17439,-2.9804 2.44617,-3.814905 0.27182,-0.834514 0.95129,-1.907452 0.95129,-1.907452 l 7.20263,2.741957 3.80517,1.549813 c -0.49514,2.280362 -2.57745,3.752003 -4.07696,5.364708 0,0 -5.97954,-2.9804 -10.3283,-3.934121 z"
       id="path4317" />
    <path
       style="fill:#ead01a;fill-opacity:1;fill-rule:evenodd;stroke:none;stroke-width:0.921075px;stroke-linecap:butt;stroke-linejoin:miter;stroke-opacity:1"
       d="m 260.99593,46.998415 c 0,0 2.71797,-3.338039 3.39748,-4.530193 0.67949,-1.192154 0.81538,-1.311381 0.81538,-1.311381 0,0 6.79495,0.834515 8.01802,1.430598 1.22309,0.596071 1.22309,0.596071 1.22309,0.596071 0,0 -1.63079,2.026668 -2.44616,2.9804 -0.81543,0.953721 -1.90262,2.145875 -1.90262,2.145875 0,0 -6.93082,-1.549803 -9.10519,-1.31137 z"
       id="path4319" />
    <path
       style="fill:#ead01a;fill-opacity:1;fill-rule:evenodd;stroke:none;stroke-width:0.921075px;stroke-linecap:butt;stroke-linejoin:miter;stroke-opacity:1"
       d="m 257.05487,35.792137 c 0,0 0.40772,2.384314 0,2.861181 -0.4077,0.476855 -0.4077,0.834504 -0.4077,0.834504 0,0 3.66927,-0.119216 4.89235,-0.119216 1.2231,0 2.03848,0.238432 2.03848,0.238432 0,0 1.4949,-3.695684 1.63079,-5.364708 0.1359,-1.669023 0,-2.622745 0,-2.622745 0,0 -6.52314,3.934121 -8.15392,4.172552 z"
       id="path4321" />
    <path
       style="fill:#ead01a;fill-opacity:1;fill-rule:evenodd;stroke:none;stroke-width:0.921075px;stroke-linecap:butt;stroke-linejoin:miter;stroke-opacity:1"
       d="m 265.7524,39.487822 c 0,0 6.11541,0.95372 7.74619,1.549803 1.6308,0.596083 1.76669,0.715298 1.76669,0.715298 0,0 2.58207,-2.98039 2.98977,-4.768628 0.4077,-1.78824 0.4077,-3.457255 0.4077,-3.457255 0,0 -5.84364,-0.35765 -8.28982,-0.596083 -2.44617,-0.238434 -2.5821,-0.35765 -2.5821,-0.35765 0,0 -1.08716,5.960794 -2.03843,6.914515 z"
       id="path4323" />
    <path
       style="fill:#ead01a;fill-opacity:1;fill-rule:evenodd;stroke:none;stroke-width:0.921075px;stroke-linecap:butt;stroke-linejoin:miter;stroke-opacity:1"
       d="m 277.71145,42.229789 c 0,0 2.85388,-5.245494 2.9898,-6.914518 0.13589,-1.669015 0.13589,-1.669015 0.13589,-1.669015 0,0 8.56161,2.980388 10.32828,4.053328 1.76668,1.072949 1.76668,1.072949 1.76668,1.072949 0,0 -0.54359,3.33804 -1.90258,5.007059 -1.35901,1.66901 -1.90259,2.503535 -1.90259,2.503535 0,0 -7.47443,-3.338039 -11.41548,-4.053338 z"
       id="path4325" />
    <path
       style="fill:#000000;fill-rule:evenodd;stroke:none;stroke-width:0.921075px;stroke-linecap:butt;stroke-linejoin:miter;stroke-opacity:1"
       d="m 151.05397,99.453318 c 0,0 0.1359,-1.788226 0.81541,-2.265092 0.67949,-0.476866 3.12566,-2.741968 4.21284,-2.861184 1.08719,-0.119215 1.08719,-0.119215 1.08719,-0.119215 0,0 -1.22308,2.384317 -1.90258,2.861183 -0.67949,0.476865 -4.21286,2.622742 -4.21286,2.384308 z"
       id="path4328" />
    <path
       style="fill:#000000;fill-rule:evenodd;stroke:none;stroke-width:0.921075px;stroke-linecap:butt;stroke-linejoin:miter;stroke-opacity:1"
       d="m 157.16941,98.38038 c 0,0 -0.13589,-1.549804 0.95131,-2.62274 1.08718,-1.072949 3.53336,-1.549813 3.53336,-1.549813 0,0 -0.81541,1.430596 -1.76669,2.145895 -0.95129,0.715288 -2.98977,2.384308 -2.71798,2.026658 z"
       id="path4330" />
    <path
       style="fill:#000000;fill-rule:evenodd;stroke:none;stroke-width:0.921075px;stroke-linecap:butt;stroke-linejoin:miter;stroke-opacity:1"
       d="m 159.61559,103.98352 c 0,0 -0.40769,-2.62274 0.5436,-4.053322 0.95128,-1.430602 2.44617,-2.622756 4.07693,-2.980405 1.6308,-0.357649 0.95131,1.072938 0.40771,1.430587 -0.54358,0.35765 -2.03847,0.953722 -2.71797,2.14588 -0.67949,1.19216 -2.17438,3.69568 -2.31027,3.45726 z"
       id="path4332" />
    <path
       style="fill:#000000;fill-rule:evenodd;stroke:none;stroke-width:0.921075px;stroke-linecap:butt;stroke-linejoin:miter;stroke-opacity:1"
       d="m 265.7524,84.312926 c 0,0 5.16412,2.2651 10.05647,2.026669 4.89238,-0.238424 6.93083,-2.980391 6.93083,-2.980391 0,0 -2.71796,-0.95372 -3.80514,-1.549804 -1.08721,-0.596081 -1.4949,-1.072936 -1.4949,-1.072936 0,0 1.90259,0.238433 3.94106,0.834505 2.03847,0.596082 8.83341,1.072936 10.3283,0.476865 1.49488,-0.596082 4.89234,-2.980399 4.89234,-2.980399 0,0 -5.16414,-0.715289 -7.47443,-1.66902 -2.31026,-0.953722 -2.71797,-1.788226 -2.71797,-1.788226 0,0 3.12567,0.357649 4.75646,0.953721 1.63075,0.596081 6.11542,1.549803 9.6488,0.834505 3.53336,-0.715289 6.11545,-3.33804 6.11545,-3.33804 0,0 -7.61033,-0.476865 -11.1437,-1.788234 -3.53335,-1.311371 -3.94105,-2.145887 -3.94105,-2.145887 0,0 3.26155,0.596093 6.38722,1.430598 3.12566,0.834504 11.14368,1.31137 14.94885,1.192153 3.80515,-0.119216 5.84363,-0.715288 6.79493,-1.31137 0.95128,-0.596072 0.54358,-1.549813 0.54358,-1.549813 0,0 1.7667,0.357649 1.90259,1.072948 0.1359,0.715298 -2.03848,2.384317 -6.93084,2.861173 -4.89233,0.476866 -5.97952,0.476866 -5.97952,0.476866 0,0 -2.44617,2.861182 -4.75646,3.695687 -2.31026,0.834505 -6.11544,1.192154 -6.11544,1.192154 0,0 -1.63078,2.62275 -5.43593,3.934121 -3.80515,1.31137 -8.96931,0.953722 -8.96931,0.953722 0,0 -1.35899,3.218832 -7.33852,3.695687 -5.97955,0.476866 -9.2411,-0.715287 -10.73599,-1.31137 -1.4949,-0.596072 -0.81539,-2.145884 -0.40768,-2.145884 z"
       id="path4334" />
    <path
       style="fill:#000000;fill-rule:evenodd;stroke:none;stroke-width:0.921075px;stroke-linecap:butt;stroke-linejoin:miter;stroke-opacity:1"
       d="m 289.26282,72.987439 c 0,0 2.71799,1.907441 4.34878,2.145874 1.63078,0.238443 4.21285,-0.834504 4.21285,-0.834504 0,0 -5.84364,-1.66902 -8.56163,-1.31137 z"
       id="path4336" />
    <path
       style="fill:#000000;fill-rule:evenodd;stroke:none;stroke-width:0.921075px;stroke-linecap:butt;stroke-linejoin:miter;stroke-opacity:1"
       d="m 295.24238,66.66901 c 0,0 0.4077,0.715288 2.71797,1.192153 2.31027,0.476867 6.79492,-0.238432 9.5129,0.476867 2.71797,0.715288 5.70774,1.549792 6.79492,1.430575 1.08718,-0.119215 1.08718,-0.119215 1.08718,-0.119215 0,0 -2.58205,-1.66901 -5.30003,-2.145875 -2.71797,-0.476856 -14.54116,-0.596073 -14.81294,-0.834505 z"
       id="path4338" />
    <path
       style="fill:#000000;fill-rule:evenodd;stroke:none;stroke-width:0.921075px;stroke-linecap:butt;stroke-linejoin:miter;stroke-opacity:1"
       d="m 300.40651,61.423518 c 0,0 6.93084,-1.192164 13.86166,-1.31138 6.93083,-0.119217 8.69751,1.192164 10.3283,1.31138 1.63077,0.119217 1.63077,0.119217 1.63077,0.119217 0,0 -1.08717,-0.596082 -2.44615,-1.430597 -1.359,-0.834505 -9.10522,-1.430587 -14.26936,-1.072937 -5.16415,0.357648 -7.74623,0.596072 -8.96932,1.072937 -1.22307,0.476866 0,1.669029 -0.1359,1.31138 z"
       id="path4340" />
    <path
       style="fill:#000000;fill-rule:evenodd;stroke:none;stroke-width:0.921075px;stroke-linecap:butt;stroke-linejoin:miter;stroke-opacity:1"
       d="m 303.66809,51.886257 c 0,0 3.94104,0 5.02824,-0.596073 1.08719,-0.596091 4.48466,-1.549813 12.91037,-1.907461 8.42574,-0.357639 20.11299,1.31137 22.01556,1.549813 1.90258,0.238433 4.21286,-0.35766 4.21286,-0.35766 0,0 -5.43594,-1.430577 -10.32829,-1.549792 -4.89235,-0.119217 -19.97709,-1.430587 -25.82073,0 -5.84363,1.430575 -8.15391,2.98039 -8.01801,2.861173 z"
       id="path4342" />
    <path
       style="fill:#000000;fill-rule:evenodd;stroke:none;stroke-width:0.921075px;stroke-linecap:butt;stroke-linejoin:miter;stroke-opacity:1"
       d="m 295.92184,43.660376 c 0,0 4.34878,-1.31137 5.57186,-2.384308 1.2231,-1.072947 7.47443,-1.907462 14.54114,-2.503535 7.06675,-0.596082 27.99514,0.596073 33.83876,0.834505 5.84365,0.238433 11.00779,0.596083 12.50268,-0.238432 1.49488,-0.834505 1.63076,-1.072939 1.63076,-1.072939 0,0 -10.19239,0 -19.43348,-0.35765 -9.2411,-0.35764 -28.13101,-2.026663 -35.19774,-0.71529 -7.0667,1.311374 -12.50267,3.457249 -13.31804,4.649412 -0.8154,1.192154 0,2.026669 -0.13594,1.788237 z"
       id="path4344" />
    <path
       style="fill:#000000;fill-rule:evenodd;stroke:none;stroke-width:0.921075px;stroke-linecap:butt;stroke-linejoin:miter;stroke-opacity:1"
       d="m 341.58378,80.974897 c 0,0 1.6308,1.31137 3.12568,1.788225 1.49488,0.476866 1.90256,-0.119217 4.75645,2.741968 2.85388,2.861173 5.84363,6.676077 7.88212,8.345096 2.03848,1.669021 4.75645,1.549804 4.75645,1.549804 0,0 -2.17437,-1.192163 -3.39746,-2.145885 -1.22309,-0.953721 -8.42572,-9.298829 -10.32831,-11.087054 -1.90256,-1.788236 -6.65902,-1.192154 -6.79493,-1.192154 z"
       id="path4346" />
    <path
       style="fill:#000000;fill-rule:evenodd;stroke:none;stroke-width:0.921075px;stroke-linecap:butt;stroke-linejoin:miter;stroke-opacity:1"
       d="m 371.48146,102.67215 c 0,0 1.35899,-0.47686 2.0385,-0.35764 0.67951,0.11921 2.85385,2.02664 5.57183,2.26509 2.71798,0.23844 7.88213,0.11922 8.42571,0.35765 0.54361,0.23843 0,1.78824 -0.67949,1.78824 -0.6795,0 -8.2898,-0.83452 -10.05648,-1.43059 -1.7667,-0.59608 -4.89236,-2.38432 -5.30007,-2.62275 z"
       id="path4348" />
    <path
       style="fill:#000000;fill-rule:evenodd;stroke:none;stroke-width:0.921075px;stroke-linecap:butt;stroke-linejoin:miter;stroke-opacity:1"
       d="m 389.556,108.15606 c 0,0 0.13588,-0.35763 0.95129,-0.35763 0.81538,0 0.95127,0 0.95127,0 0,0 -0.67948,1.90744 0.4077,2.98039 1.0872,1.07294 3.39747,2.74195 3.12568,3.57647 -0.27181,0.83451 -3.12568,2.38431 -3.94107,3.33803 -0.81538,0.95373 -0.81538,2.62276 -1.49487,2.9804 -0.67951,0.35765 -1.6308,-2.14589 -0.4077,-3.21883 1.22307,-1.07294 4.07695,-2.98038 3.39747,-3.8149 -0.67951,-0.8345 -3.26157,-1.78823 -2.98977,-5.48393 z"
       id="path4350" />
    <path
       style="fill:#000000;fill-rule:evenodd;stroke:none;stroke-width:0.921075px;stroke-linecap:butt;stroke-linejoin:miter;stroke-opacity:1"
       d="m 123.10211,57.312301 c 0,0 0,-1.601664 0.67266,-2.276051 0.67267,-0.674388 1.9219,-1.01157 2.69066,-0.674388 0.76877,0.337194 0.19218,1.517371 0.19218,1.517371 0,0 -0.96094,-0.08429 -1.24922,0.674388 -0.28827,0.75868 -0.19219,1.77026 -0.76875,1.77026 -0.57657,0 -1.44141,-0.75868 -1.53753,-1.01158 z"
       id="path4352" />
    <path
       style="fill:#000000;fill-rule:evenodd;stroke:none;stroke-width:0.921075px;stroke-linecap:butt;stroke-linejoin:miter;stroke-opacity:1"
       d="m 118.97004,55.963537 c 0,0 -0.38438,-1.433077 0.19219,-2.444658 0.57656,-1.01158 1.44141,-1.433067 2.49848,-0.75868 1.05702,0.674387 0.67266,1.264481 0,1.601663 -0.67267,0.337194 -0.76877,-0.0843 -0.96097,0.505791 -0.19217,0.590084 0.38439,1.854564 -1.7297,1.095884 z"
       id="path4354" />
    <path
       style="fill:#000000;fill-rule:evenodd;stroke:none;stroke-width:0.921075px;stroke-linecap:butt;stroke-linejoin:miter;stroke-opacity:1"
       d="m 113.97311,52.338702 c 0,0 0.67265,1.095884 0.0961,1.348774 -0.57657,0.2529 -2.01798,0.590084 -2.01798,-1.180177 0,-1.770261 0.76874,-3.119036 2.01798,-2.697538 1.24923,0.421487 1.9219,0.842984 1.53753,1.433068 -0.3844,0.590092 -1.92189,0.168596 -1.63362,1.095873 z"
       id="path4356" />
    <path
       style="fill:#000000;fill-rule:evenodd;stroke:none;stroke-width:0.921075px;stroke-linecap:butt;stroke-linejoin:miter;stroke-opacity:1"
       d="m 107.72696,50.652745 c 0,0 -1.72972,0.842974 -2.1141,0 -0.38437,-0.842984 -0.67268,-2.360356 0.28829,-2.950439 0.96093,-0.590084 2.49848,-1.095884 2.78673,-0.674388 0.28831,0.421488 0.48048,0.927278 0.0962,1.264471 -0.38436,0.337194 -0.57655,0 -0.96094,0.590094 -0.38439,0.590085 -0.67267,1.348765 -0.0961,1.770262 z"
       id="path4358" />
    <path
       style="fill:#000000;fill-rule:evenodd;stroke:none;stroke-width:0.921075px;stroke-linecap:butt;stroke-linejoin:miter;stroke-opacity:1"
       d="m 98.982322,46.859322 c 0,0 -0.19218,-1.517371 0,-1.938857 0.19218,-0.421498 0.864861,-0.337194 1.249218,-0.75868 0.38439,-0.421498 0.76877,-0.505802 0.86486,-1.011582 0.0962,-0.5058 1.34534,-0.168596 1.34534,0.842984 0,1.011571 -0.4805,2.444638 -1.63361,3.034731 -1.15315,0.590084 -2.017988,-0.168596 -1.825808,-0.168596 z"
       id="path4360" />
    <path
       style="fill:#000000;fill-rule:evenodd;stroke:none;stroke-width:0.921075px;stroke-linecap:butt;stroke-linejoin:miter;stroke-opacity:1"
       d="m 91.679113,45.341951 c 0,0 2.114088,-0.168586 2.210174,-0.842984 0.09611,-0.674386 -0.864853,-1.348764 0.09611,-2.613244 0.960953,-1.264471 1.441435,-1.011581 1.729708,-2.023151 0.288283,-1.011582 0.57658,-1.601668 0,-1.68597 -0.57657,-0.08429 -1.345324,0.590086 -1.345324,1.264472 0,0.674388 -1.825806,1.770272 -2.210178,2.528952 -0.384382,0.758681 -0.576566,3.371925 -0.480479,3.371925 z"
       id="path4362" />
    <path
       style="fill:#000000;fill-rule:evenodd;stroke:none;stroke-width:0.921075px;stroke-linecap:butt;stroke-linejoin:miter;stroke-opacity:1"
       d="m 83.511058,45.004758 c 0,0 1.057039,0.337193 1.53752,-0.674387 0.480472,-1.01157 0,-2.191748 0.768744,-3.287621 0.768767,-1.095884 1.249249,-1.011581 1.345336,-1.685969 0.09611,-0.674387 -0.960941,-0.842993 -1.729707,-0.337193 -0.768755,0.50578 -1.729707,2.023162 -2.114078,3.287632 -0.384383,1.264471 0.0961,2.697538 0.192185,2.697538 z"
       id="path4364" />
    <path
       style="fill:#000000;fill-rule:evenodd;stroke:none;stroke-width:0.921075px;stroke-linecap:butt;stroke-linejoin:miter;stroke-opacity:1"
       d="m 94.754153,27.80792 c 0,0 -1.153138,0.168595 -2.017993,1.264468 -0.864864,1.095883 -0.768765,2.023161 -0.384382,2.107464 0.384382,0.08429 1.057052,-1.180176 2.017992,-1.60167 0.960954,-0.421491 1.633607,0 1.921904,-0.337191 0.288273,-0.337199 1.057039,-0.842985 0.0961,-1.095882 -0.96094,-0.252897 -1.729707,-0.168594 -1.633608,-0.337189 z"
       id="path4366" />
    <path
       style="fill:#000000;fill-rule:evenodd;stroke:none;stroke-width:0.921075px;stroke-linecap:butt;stroke-linejoin:miter;stroke-opacity:1"
       d="m 91.390839,25.194672 c 0,0 0.672655,-0.674381 1.729695,-1.011581 1.057051,-0.337189 1.825805,0.421493 2.402375,-0.08429 0.576566,-0.505796 0.768765,-0.927287 0.288283,-1.180175 -0.480468,-0.252897 -3.267228,-0.421493 -4.132079,0.337191 -0.864856,0.758682 -1.153141,2.02316 -0.288274,1.938858 z"
       id="path4368" />
    <path
       style="fill:#000000;fill-rule:evenodd;stroke:none;stroke-width:0.921075px;stroke-linecap:butt;stroke-linejoin:miter;stroke-opacity:1"
       d="m 88.700178,20.726869 c 0,0 1.249226,-0.33719 1.249226,-0.67439 0,-0.337191 0.576568,-0.927279 1.825806,-1.685962 1.249224,-0.758682 1.729708,-0.0843 2.114077,-0.674389 0.384397,-0.590088 0.09611,-1.095874 -0.672656,-1.095874 -0.768754,0 -2.114089,0.927278 -2.594558,1.095874 -0.480471,0.168595 -2.017993,0.674389 -2.402364,1.433072 -0.384396,0.758683 0.384371,1.601669 0.480469,1.601669 z"
       id="path4370" />
    <path
       style="fill:#000000;fill-rule:evenodd;stroke:none;stroke-width:0.921075px;stroke-linecap:butt;stroke-linejoin:miter;stroke-opacity:1"
       d="m 59.679546,26.79634 c 0,0 -0.864854,-2.697541 0.384372,-3.709122 1.249235,-1.011579 2.690657,-0.927276 1.921903,-1.517364 -0.768767,-0.590087 -3.267227,0 -4.132082,1.770262 -0.864851,1.770262 -1.44141,4.214906 0,4.552096 1.441422,0.3372 2.017993,-1.095872 1.825807,-1.095872 z"
       id="path4372" />
    <path
       style="fill:#000000;fill-rule:evenodd;stroke:none;stroke-width:0.921075px;stroke-linecap:butt;stroke-linejoin:miter;stroke-opacity:1"
       d="m 61.793635,28.735197 c 0,0 -0.480482,-2.444643 0.480459,-3.371931 0.960953,-0.927277 3.843797,-1.601666 4.132081,-0.927277 0.288296,0.674389 -1.633608,1.095874 -2.306276,1.601668 -0.672667,0.505785 -0.09609,2.69754 -0.576556,2.950437 -0.480483,0.252897 -1.537522,-0.252897 -1.729708,-0.252897 z"
       id="path4374" />
    <path
       style="fill:#000000;fill-rule:evenodd;stroke:none;stroke-width:0.921075px;stroke-linecap:butt;stroke-linejoin:miter;stroke-opacity:1"
       d="m 68.808549,31.43274 c 0,0 -1.249235,0.842984 -1.729704,-0.590088 -0.480472,-1.433064 0.768765,-3.371923 1.345322,-3.456225 0.576568,-0.0843 2.306289,0.421493 1.825805,1.095873 -0.480469,0.674391 -1.537508,0.674391 -1.633608,1.264479 -0.09611,0.590088 0.192185,1.770261 0.192185,1.685961 z"
       id="path4376" />
    <path
       style="fill:#000000;fill-rule:evenodd;stroke:none;stroke-width:0.921075px;stroke-linecap:butt;stroke-linejoin:miter;stroke-opacity:1"
       d="m 73.805484,34.973265 c 0,0 -1.249235,-1.264468 -1.249235,-2.107453 0,-0.842985 0.864852,-1.854557 1.441421,-1.601669 0.576571,0.252897 0.192186,1.938859 0.192186,2.444654 0,0.505785 -0.288273,1.433074 -0.384372,1.264468 z"
       id="path4378" />
    <path
       style="fill:#000000;fill-rule:evenodd;stroke:none;stroke-width:0.921075px;stroke-linecap:butt;stroke-linejoin:miter;stroke-opacity:1"
       d="m 80.339928,38.935284 c 0,0 -0.288284,-1.854556 -0.384369,-2.69754 -0.0961,-0.842985 -1.057052,-0.590088 -1.153151,0.168595 -0.0961,0.758682 -0.48047,2.191751 -0.0961,2.613249 0.384383,0.421486 1.537521,0.08429 1.63362,-0.0843 z"
       id="path4380" />
    <path
       style="fill:#000000;fill-rule:evenodd;stroke:none;stroke-width:0.921075px;stroke-linecap:butt;stroke-linejoin:miter;stroke-opacity:1"
       d="m 50.070059,49.894064 c 0,0 0.192197,-1.180177 1.249237,-1.348785 1.057051,-0.168596 0.864854,0.674388 1.249236,1.685969 0.384372,1.011581 1.921893,1.264471 2.017991,1.854564 0.09609,0.590083 0.672656,2.444648 0.09609,2.528951 -0.57657,0.08429 -0.384372,0.842974 -1.441423,-0.927287 -1.057038,-1.770261 -0.96094,-1.938857 -1.633608,-2.360355 -0.672668,-0.421486 -1.441422,-1.180167 -1.537521,-1.433057 z"
       id="path4382" />
    <path
       style="fill:#000000;fill-rule:evenodd;stroke:none;stroke-width:0.921075px;stroke-linecap:butt;stroke-linejoin:miter;stroke-opacity:1"
       d="m 56.508417,46.269228 c 0,0 1.153136,-0.337183 1.441421,0.337194 0.288273,0.674387 0,2.613245 0.288273,3.287642 0.288297,0.674377 0.864865,1.770261 0.480483,2.023151 -0.384384,0.25289 -1.633608,-1.517371 -2.210177,-2.023151 -0.57657,-0.505801 -0.960953,-0.927287 -0.960953,-1.685968 0,-0.75869 0.960953,-1.685968 0.960953,-1.938868 z"
       id="path4384" />
    <path
       style="fill:#000000;fill-rule:evenodd;stroke:none;stroke-width:0.921075px;stroke-linecap:butt;stroke-linejoin:miter;stroke-opacity:1"
       d="m 63.619429,45.089061 c 0,0 0.57657,1.433067 0.384384,2.191748 -0.192186,0.75869 0.0961,1.348774 0.0961,1.348774 0,0 0.192187,0.927277 -0.48047,1.011581 -0.672669,0.08429 -1.633608,-1.517361 -1.537521,-2.613246 0.09611,-1.095873 0.672667,-1.938857 1.537521,-1.938857 z"
       id="path4386" />
    <path
       style="fill:#000000;fill-rule:evenodd;stroke:none;stroke-width:0.921075px;stroke-linecap:butt;stroke-linejoin:miter;stroke-opacity:1"
       d="m 70.538257,44.751868 c 0,0 0.96094,0.25289 0.96094,1.180177 0,0.927277 0.192197,2.023151 -0.48047,2.444638 -0.672668,0.421496 -2.114078,0.421496 -1.729707,-1.433057 0.384383,-1.854565 1.153138,-2.276062 1.249237,-2.191758 z"
       id="path4388" />
    <path
       style="fill:#000000;fill-rule:evenodd;stroke:none;stroke-width:0.921075px;stroke-linecap:butt;stroke-linejoin:miter;stroke-opacity:1"
       d="m 77.457085,43.403093 c 0,0 0.576569,1.770272 0.480481,2.191748 -0.09611,0.421497 0,1.264481 -0.864864,1.095885 -0.864854,-0.168598 -1.537522,-0.252901 -1.537522,-1.011582 0,-0.758679 0.192198,-0.927276 0.576582,-1.348773 0.384369,-0.421487 1.345323,-0.75868 1.345323,-0.927278 z"
       id="path4390" />
    <path
       style="fill:#ead01a;fill-opacity:1;fill-rule:evenodd;stroke:none;stroke-width:0.921075px;stroke-linecap:butt;stroke-linejoin:miter;stroke-opacity:1"
       d="m 105.42067,100.3044 c 0,0 -1.82579,0.50579 -3.74769,0.67439 -1.9219,0.1686 -2.690658,0.25289 -2.594568,1.01159 0.09606,0.75867 2.114088,1.18016 0.960948,2.69753 -1.153139,1.51736 -4.228168,3.79341 -8.744621,2.69754 -4.516464,-1.09588 -11.146995,-9.019914 -12.972801,-12.223242 -1.825807,-3.203329 -7.495395,-10.368685 -9.513389,-11.295963 -2.01799,-0.927277 -4.228167,-1.685967 -5.18912,-1.01158 -0.960941,0.674387 -0.960941,0.674387 -0.960941,0.674387 0,0 0.480471,2.866144 -0.384394,4.046312 -0.864842,1.180177 -2.690649,2.107454 -2.690649,2.107454 0,0 -0.192183,2.866145 1.921905,3.540532 2.114079,0.674387 2.882836,-0.168597 8.168053,3.371925 5.285219,3.540525 10.666525,6.996765 11.435281,9.272805 0.768755,2.27604 -5.861777,2.52894 -8.648535,2.61324 -2.786746,0.0843 -8.552434,0.0843 -12.107947,-1.01157 -3.555501,-1.09588 -8.936808,-1.51737 -10.186044,-0.84298 -1.249236,0.67439 -0.672668,3.45623 -0.672668,3.45623 0,0 1.345324,1.68596 1.633607,3.28763 0.288297,1.60166 -0.384371,3.62481 -0.384371,3.62481 0,0 0.480482,2.02317 3.075031,1.26448 2.594572,-0.75868 8.36025,-3.20334 11.915763,-3.79342 3.5555,-0.59008 12.588418,-0.92727 15.182978,-0.0843 2.59456,0.84298 3.363315,3.96202 3.07503,4.80499 -0.288284,0.84298 -0.288284,0.84298 -0.288284,0.84298 0,0 1.53752,0.5058 1.825806,1.09588 0.288272,0.59009 -0.576568,1.18017 -0.960953,0.67439 -0.38437,-0.50578 -2.49846,-0.59008 -2.49846,-0.59008 0,0 -2.402375,1.51736 -2.882845,1.68595 -0.480483,0.16861 -0.480483,0.16861 -0.480483,0.16861 0,0 -0.192186,0.50579 0.768767,0.92728 0.96094,0.4215 2.306264,0.33719 2.210177,0.67439 -0.09611,0.33719 -0.864854,0.75868 -1.729694,0.84297 -0.864867,0.0843 -2.114092,-0.92727 -2.114092,-0.92727 l -1.633619,-0.59009 c 0,0 -1.441411,0.16859 -2.594561,0.84298 -1.153138,0.67438 -2.498461,1.77027 -4.035982,2.19175 -1.537509,0.42149 -5.381306,0.84299 -5.381306,2.10746 0,1.26448 1.63362,2.69753 1.63362,2.69753 0,0 3.363314,0.3372 4.035983,1.26449 0.672655,0.92727 0.960941,1.43307 0.960941,1.43307 0,0 4.03598,0.92729 6.342256,-1.43307 2.306277,-2.36036 4.420355,-6.57526 9.032918,-10.79019 4.61254,-4.2149 9.80166,-6.91244 14.990783,-8.09262 5.18913,-1.18017 7.49538,-1.85456 7.49538,-1.85456 l -0.28825,-0.67439 c 0,0 -1.92192,0.0843 -3.07506,0.50579 -1.15314,0.4215 -4.13207,0.1686 -4.13207,0.1686 0,0 -0.38437,1.01158 -1.249243,1.09587 -0.864845,0.0843 -3.171113,0.0843 -3.075025,-0.42148 0.0961,-0.5058 3.747698,-0.5058 3.939898,-1.26448 0.19218,-0.7587 0.19218,-3.54053 0.57656,-4.13061 0.38439,-0.59008 1.72969,-0.75868 1.72969,-0.75868 0,0 -0.96093,3.70912 -0.48046,4.13059 0.48046,0.42151 0.48046,0.42151 0.48046,0.42151 0,0 3.17114,-0.0843 4.22817,-0.75868 1.05708,-0.67439 1.05708,-0.67439 1.05708,-0.67439 0,0 -0.2883,-2.52895 -0.67267,-2.86614 -0.38441,-0.3372 -0.38441,-0.3372 -0.38441,-0.3372 0,0 -2.30626,0.67439 -2.78673,-1.51736 -0.48047,-2.19176 1.15313,-4.80501 0.86485,-4.9736 z"
       id="path4392" />
    <path
       style="fill:#000000;fill-rule:evenodd;stroke:none;stroke-width:0.921075px;stroke-linecap:butt;stroke-linejoin:miter;stroke-opacity:1"
       d="m 64.195999,91.200199 c 0,0 2.114077,-1.348783 2.498472,-3.034742 0.384374,-1.685967 0.192187,-3.287632 -0.768766,-3.371934 -0.960953,-0.08429 -1.441422,0.5058 -1.345323,1.854563 0.0961,1.348774 -0.960953,2.781842 -1.15315,3.45623 -0.192185,0.674386 0.576581,1.180177 0.768767,1.095883 z"
       id="path4394" />
    <path
       style="fill:#000000;fill-rule:evenodd;stroke:none;stroke-width:0.921075px;stroke-linecap:butt;stroke-linejoin:miter;stroke-opacity:1"
       d="m 69.673403,92.464659 c 0,0 2.690649,-0.25289 2.498462,-1.51736 -0.192186,-1.264481 0.576582,-2.107454 -0.672668,-1.770261 -1.249225,0.337184 -1.53751,0.50578 -1.633595,1.095874 -0.0961,0.590084 -0.480483,2.191747 -0.192199,2.191747 z"
       id="path4396" />
    <path
       style="fill:#000000;fill-rule:evenodd;stroke:none;stroke-width:0.921075px;stroke-linecap:butt;stroke-linejoin:miter;stroke-opacity:1"
       d="m 74.285956,97.944049 c 0,0 -0.192187,-0.842974 0.480481,-1.601674 0.672656,-0.758681 1.729694,0 1.441411,-1.517361 -0.288272,-1.51736 -1.825806,-2.023161 -1.921892,-1.685957 -0.09611,0.337183 -1.249237,2.613234 -1.249237,2.613234 z"
       id="path4398" />
    <path
       style="fill:#000000;fill-rule:evenodd;stroke:none;stroke-width:0.921075px;stroke-linecap:butt;stroke-linejoin:miter;stroke-opacity:1"
       d="m 78.898507,100.89448 c 0,0 -0.0961,-0.67437 0.384385,-1.180168 0.480457,-0.50578 1.153124,-1.18018 0.288271,-1.433069 -0.864854,-0.25289 -1.825806,-0.168598 -1.921894,0.505792 -0.09611,0.674387 0,0.08428 -0.09611,0.674387 -0.09609,0.590088 -0.576557,1.011568 0.288296,1.348768 0.864842,0.3372 0.96094,0.3372 1.05704,0.0843 z"
       id="path4400" />
    <path
       style="fill:#000000;fill-rule:evenodd;stroke:none;stroke-width:0.921075px;stroke-linecap:butt;stroke-linejoin:miter;stroke-opacity:1"
       d="m 55.451377,108.73422 c 0,0 -0.57658,1.60167 -0.672668,2.86614 -0.09611,1.26448 1.249226,2.86614 1.057039,3.37193 -0.192184,0.5058 -2.210177,0.67439 -2.69066,-1.68596 -0.480469,-2.36035 -1.057038,-3.54053 -0.288283,-4.21492 0.768766,-0.67439 2.690659,-0.25288 2.594572,-0.33719 z"
       id="path4402" />
    <path
       style="fill:#000000;fill-rule:evenodd;stroke:none;stroke-width:0.921075px;stroke-linecap:butt;stroke-linejoin:miter;stroke-opacity:1"
       d="m 60.160016,114.55081 c 0,0 -1.921905,-0.5901 -1.921905,-2.61325 0,-2.02316 0.768767,-3.37193 1.441435,-3.20334 0.672656,0.16861 1.441421,0.92729 1.057039,1.51738 -0.384383,0.59009 -0.768754,0.25289 -0.672667,1.43306 0.09611,1.18018 1.249235,2.44464 0.09611,2.86615 z"
       id="path4404" />
    <path
       style="fill:#000000;fill-rule:evenodd;stroke:none;stroke-width:0.921075px;stroke-linecap:butt;stroke-linejoin:miter;stroke-opacity:1"
       d="m 66.598373,113.03344 c 0,0 -1.633621,-1.34878 -0.960952,-2.36035 0.672655,-1.01158 2.210189,-1.34879 2.11409,-0.67439 -0.0961,0.67439 -0.672666,0.84299 -0.384383,1.34877 0.288284,0.50579 1.153139,1.26448 1.153139,1.26448 z"
       id="path4406" />
    <path
       style="fill:#000000;fill-rule:evenodd;stroke:none;stroke-width:0.921075px;stroke-linecap:butt;stroke-linejoin:miter;stroke-opacity:1"
       d="m 73.805484,112.86484 c 0,0 -1.825805,-1.18018 -0.960952,-2.19175 0.864855,-1.01158 1.729709,-1.93887 2.11409,-1.18017 0.384371,0.75868 -0.192185,0.92728 -0.09611,1.85455 0.09611,0.92727 0.48047,1.26448 -1.057038,1.51737 z"
       id="path4408" />
    <path
       style="fill:#000000;fill-rule:evenodd;stroke:none;stroke-width:0.921075px;stroke-linecap:butt;stroke-linejoin:miter;stroke-opacity:1"
       d="m 79.859458,112.44335 c 0,0 -1.633618,1.01157 -2.017991,-0.67439 -0.384382,-1.68596 0.384373,-3.11903 1.441425,-2.61325 1.057036,0.5058 0.480457,3.28764 0.576566,3.28764 z"
       id="path4410" />
    <path
       style="fill:#000000;fill-rule:evenodd;stroke:none;stroke-width:0.921075px;stroke-linecap:butt;stroke-linejoin:miter;stroke-opacity:1"
       d="m 86.48999,107.55404 c 0,0 -0.768755,1.51737 -0.864853,3.28765 -0.09609,1.77026 1.153138,4.2992 0.192185,4.4678 -0.960941,0.1686 -2.01799,-2.69754 -2.01799,-4.7207 0,-2.02316 0.768765,-2.69753 1.249246,-3.03475 0.480472,-0.33719 1.345325,-0.42148 1.441412,0 z"
       id="path4412" />
    <path
       style="fill:#000000;fill-rule:evenodd;stroke:none;stroke-width:0.921075px;stroke-linecap:butt;stroke-linejoin:miter;stroke-opacity:1"
       d="m 90.237699,108.81853 c 0,0 -0.96095,-0.5058 -1.729718,1.18017 -0.768754,1.68596 1.057052,5.90088 1.729718,5.98517 0.672657,0.0843 1.345327,-1.60166 0.960942,-2.19175 -0.384384,-0.59009 -0.864854,-0.3372 -1.057039,-1.68597 -0.192198,-1.34876 0.576569,-1.93886 0.672655,-2.27604 0.09611,-0.33719 -0.576558,-0.84299 -0.576558,-1.01158 z"
       id="path4414" />
    <path
       style="fill:#000000;fill-rule:evenodd;stroke:none;stroke-width:0.921075px;stroke-linecap:butt;stroke-linejoin:miter;stroke-opacity:1"
       d="m 94.85024,108.64993 c 0,0 0.384384,1.60167 0.384384,1.93886 0,0.33719 -0.57657,1.34877 -0.192198,1.51736 0.384395,0.16859 1.729718,-1.09589 1.729718,-1.77026 0,-0.67438 0.192186,-1.26448 0,-1.60167 -0.192197,-0.3372 -1.345323,-1.18018 -1.921904,-0.0843 z"
       id="path4416" />
    <path
       style="fill:#000000;fill-rule:evenodd;stroke:none;stroke-width:0.921075px;stroke-linecap:butt;stroke-linejoin:miter;stroke-opacity:1"
       d="m 67.655412,130.48318 c 0,0 1.729707,-0.3372 3.171131,1.01157 1.441422,1.34878 2.978941,2.02316 3.171127,1.26446 0.192186,-0.75867 -2.402374,-2.61323 -2.978943,-2.95043 -0.576569,-0.33718 -2.017992,-0.75868 -3.171117,-0.59009 -1.153139,0.1686 -0.960952,1.18019 -0.192198,1.26449 z"
       id="path4418" />
    <path
       style="fill:#000000;fill-rule:evenodd;stroke:none;stroke-width:0.921075px;stroke-linecap:butt;stroke-linejoin:miter;stroke-opacity:1"
       d="m 71.787495,127.95422 c 0,0 1.537507,-0.67438 2.402361,0.59009 0.864853,1.26447 3.075044,0.50579 2.210177,-0.1686 -0.864853,-0.67439 -1.345324,-1.93886 -3.171117,-1.93886 -1.825806,0 -2.306275,0.67439 -1.441421,1.51737 z"
       id="path4420" />
    <path
       id="rect2237"
       style="opacity:1;fill:#ffffff;stroke-width:1.97546"
       d="M 0.01315286,150.90761 H 502.99017 v 75.44655 H 0.01315286 Z" />
  </g>
</svg>
