<?xml version="1.0" encoding="utf-8"?>
<!-- Generator: Adobe Illustrator 14.0.0, SVG Export Plug-In . SVG Version: 6.00 Build 43363)  -->
<!DOCTYPE svg PUBLIC "-//W3C//DTD SVG 1.0//EN" "http://www.w3.org/TR/2001/REC-SVG-20010904/DTD/svg10.dtd">
<svg version="1.0" id="svg1358" xmlns:svg="http://www.w3.org/2000/svg"
	 xmlns="http://www.w3.org/2000/svg" xmlns:xlink="http://www.w3.org/1999/xlink" x="0px" y="0px" width="1000px" height="600px"
	 viewBox="0.039 -7.23 1000 600" enable-background="new 0.039 -7.23 1000 600" xml:space="preserve">
<g id="Ebene_1">
	<rect id="rect1361" x="0.039" y="292.77" fill="#FFFFFF" width="1000" height="300"/>
	<rect id="rect1363" x="0.039" y="-7.23" fill="#E60000" width="1000" height="300"/>
</g>
<g>
	<path fill="#FFFFFF" stroke="#000000" stroke-width="4" d="M304.103,69.014c130.787,0,261.575,0,392.361,0
		c0.002,52.886-0.006,105.462,0,158.49c0.002,52.899,3.532,108.099-7.985,150.899c-10.871,40.383-35.157,73.202-65.334,96.336
		c-29.738,22.796-69.83,41.343-122.68,41.779c-26.443,0.219-49.68-5.512-70.051-12.773c-20.707-7.389-37.475-17.281-52.629-29.006
		c-30.156-23.337-54.731-55.335-66.058-95.649c-11.974-42.616-7.986-98.221-7.986-150.895c0-52.97,0-105.387,0-158.146
		C303.708,69.559,303.68,69.071,304.103,69.014z"/>
	<path fill="#F50000" stroke="#000000" stroke-width="2" stroke-linejoin="round" d="M578.731,109.477
		c32.472,24.628,48.473,57.039,48.473,101.604c0,70.311-56.997,127.308-127.307,127.308c-70.311,0-127.308-56.997-127.308-127.308
		c0-44.563,16.752-73.626,49.912-101.604l16.146-12.963c-55.034,23.231-97.228,81.731-97.228,144.655
		c0,87.529,70.954,158.479,158.479,158.479c87.527,0,158.478-70.95,158.478-158.479c0-62.927-37.438-121.424-97.219-144.655
		L578.731,109.477z"/>
	<polygon id="polygon1357_1_" fill="#F50000" stroke="#000000" stroke-width="2" points="499.897,314.872 478.369,248.493 
		413.782,264.64 458.633,214.407 411.988,164.173 476.574,178.526 499.897,112.146 523.218,178.526 587.805,164.173 
		541.161,214.407 586.01,264.64 521.425,248.493 	"/>
	<polygon id="polygon1359_1_" fill="#F50000" stroke="#000000" stroke-width="2" points="500.463,508.738 489.794,475.845 
		457.786,483.845 480.014,458.955 456.898,434.055 488.906,441.167 500.463,408.274 512.017,441.167 544.028,434.055 
		520.912,458.955 543.14,483.845 511.128,475.845 	"/>
</g>
</svg>
