<?xml version="1.0" encoding="UTF-8" standalone="no"?>
<!-- Created with Inkscape (http://www.inkscape.org/) -->

<svg
   xmlns:dc="http://purl.org/dc/elements/1.1/"
   xmlns:cc="http://creativecommons.org/ns#"
   xmlns:rdf="http://www.w3.org/1999/02/22-rdf-syntax-ns#"
   xmlns:svg="http://www.w3.org/2000/svg"
   xmlns="http://www.w3.org/2000/svg"
   xmlns:sodipodi="http://sodipodi.sourceforge.net/DTD/sodipodi-0.dtd"
   xmlns:inkscape="http://www.inkscape.org/namespaces/inkscape"
   id="svg2"
   version="1.1"
   inkscape:version="0.91 r13725"
   width="800"
   height="500"
   sodipodi:docname="ANA flag (2021) WA.svg">
  <metadata
     id="metadata8">
    <rdf:RDF>
      <cc:Work
         rdf:about="">
        <dc:format>image/svg+xml</dc:format>
        <dc:type
           rdf:resource="http://purl.org/dc/dcmitype/StillImage" />
        <dc:title></dc:title>
      </cc:Work>
    </rdf:RDF>
  </metadata>
  <defs
     id="defs6" />
  <sodipodi:namedview
     pagecolor="#ffffff"
     bordercolor="#666666"
     borderopacity="1"
     objecttolerance="10"
     gridtolerance="10"
     guidetolerance="10"
     inkscape:pageopacity="0"
     inkscape:pageshadow="2"
     inkscape:window-width="1366"
     inkscape:window-height="705"
     id="namedview4"
     showgrid="false"
     inkscape:zoom="0.63985466"
     inkscape:cx="51.517427"
     inkscape:cy="222.5142"
     inkscape:window-x="-8"
     inkscape:window-y="-8"
     inkscape:window-maximized="1"
     inkscape:current-layer="svg2" />
  <rect
     style="fill:#ffffff;fill-opacity:1;fill-rule:nonzero;stroke:none"
     id="rect3022"
     width="800"
     height="500"
     x="0"
     y="0" />
  <path
     style="fill:#000000;fill-opacity:1;fill-rule:nonzero;stroke:#000000;stroke-width:5;stroke-miterlimit:4;stroke-dasharray:none;stroke-opacity:1"
     d="m 162.46641,154 -82.487464,192 45.384164,0 17.46037,-43.60459 84.60582,0 18.48746,43.60459 46.53963,0 -84.7984,-192 -45.19158,0 z m 153.22769,0 0,192 39.7352,0 0,-125.22499 L 440.80543,346 l 42.88064,0 0,-192 -39.7352,0 0,128.25226 L 357.29089,154 315.6941,154 Z m 274.29488,0 -82.48747,192 45.38416,0 17.46038,-43.60459 84.60581,0 18.48747,43.60459 46.53962,0 -84.7984,-192 -45.19157,0 z m -405.44032,44.76896 29.14343,71.25773 -57.77332,0 28.62989,-71.25773 z m 427.52256,0 29.14344,71.25773 -57.77333,0 28.62989,-71.25773 z"
     id="rect3019"
     inkscape:connector-curvature="0" />
</svg>
